<?xml version="1.0" encoding="UTF-8"?>
<svg xmlns="http://www.w3.org/2000/svg" xmlns:xlink="http://www.w3.org/1999/xlink" width="1065pt" height="338pt" viewBox="0 0 1065 338">
<defs>
<g>
<g id="glyph-0-0">
<path d="M 1.96875 -2.140625 L 2.625 -2.828125 L 4.734375 0 L 6.3125 0 L 3.46875 -3.65625 L 6.03125 -6.40625 L 4.484375 -6.40625 L 1.96875 -3.59375 L 1.96875 -6.40625 L 0.65625 -6.40625 L 0.65625 0 L 1.96875 0 Z M 1.96875 -2.140625 "/>
</g>
<g id="glyph-0-1">
<path d="M 1.984375 -2.28125 L 3.640625 -2.28125 C 4.8125 -2.28125 5.5625 -3.125 5.5625 -4.421875 C 5.5625 -5.703125 4.84375 -6.40625 3.5 -6.40625 L 0.671875 -6.40625 L 0.671875 0 L 1.984375 0 Z M 1.984375 -3.390625 L 1.984375 -5.3125 L 3.21875 -5.3125 C 3.921875 -5.3125 4.25 -5 4.25 -4.359375 C 4.25 -3.6875 3.921875 -3.390625 3.21875 -3.390625 Z M 1.984375 -3.390625 "/>
</g>
<g id="glyph-0-2">
<path d="M 6.25 -3.453125 L 3.6875 -3.453125 L 3.6875 -2.34375 L 5.140625 -2.34375 C 5.109375 -1.984375 5.015625 -1.765625 4.828125 -1.546875 C 4.515625 -1.15625 4.015625 -0.921875 3.515625 -0.921875 C 2.453125 -0.921875 1.6875 -1.859375 1.6875 -3.171875 C 1.6875 -4.5625 2.359375 -5.390625 3.484375 -5.390625 C 3.9375 -5.390625 4.328125 -5.265625 4.625 -5 C 4.796875 -4.84375 4.90625 -4.703125 5.015625 -4.359375 L 6.25 -4.359375 C 6.09375 -5.6875 5.015625 -6.515625 3.46875 -6.515625 C 1.625 -6.515625 0.375 -5.15625 0.375 -3.15625 C 0.375 -1.21875 1.640625 0.203125 3.375 0.203125 C 4.234375 0.203125 4.8125 -0.109375 5.296875 -0.828125 L 5.46875 0.015625 L 6.25 0.015625 Z M 6.25 -3.453125 "/>
</g>
<g id="glyph-0-3">
</g>
<g id="glyph-0-4">
<path d="M 0.5625 -2.984375 L 0.5625 -1.90625 L 1.65625 -1.90625 L 1.65625 -2.984375 Z M 0.5625 -2.984375 "/>
</g>
<g id="glyph-0-5">
<path d="M 2.015625 -2.546875 L 3.53125 -2.546875 C 4.109375 -2.546875 4.359375 -2.3125 4.359375 -1.78125 L 4.359375 -1.515625 C 4.34375 -1.359375 4.34375 -1.203125 4.34375 -1.09375 C 4.34375 -0.5 4.375 -0.3125 4.546875 0 L 5.953125 0 L 5.953125 -0.234375 C 5.75 -0.359375 5.671875 -0.484375 5.671875 -0.765625 C 5.640625 -2.65625 5.609375 -2.75 4.78125 -3.09375 C 5.5 -3.375 5.875 -3.890625 5.875 -4.6875 C 5.875 -5.1875 5.6875 -5.65625 5.390625 -5.96875 C 5.09375 -6.265625 4.6875 -6.40625 4.140625 -6.40625 L 0.703125 -6.40625 L 0.703125 0 L 2.015625 0 Z M 2.015625 -3.640625 L 2.015625 -5.3125 L 3.609375 -5.3125 C 4 -5.3125 4.140625 -5.28125 4.3125 -5.140625 C 4.46875 -5.015625 4.546875 -4.796875 4.546875 -4.5 C 4.546875 -4.1875 4.46875 -3.9375 4.3125 -3.8125 C 4.15625 -3.6875 4 -3.640625 3.609375 -3.640625 Z M 2.015625 -3.640625 "/>
</g>
<g id="glyph-0-6">
<path d="M 6 -4.234375 C 5.953125 -4.796875 5.84375 -5.140625 5.5625 -5.5 C 5.078125 -6.15625 4.28125 -6.515625 3.328125 -6.515625 C 1.515625 -6.515625 0.390625 -5.21875 0.390625 -3.15625 C 0.390625 -1.078125 1.5 0.203125 3.296875 0.203125 C 4.890625 0.203125 5.953125 -0.71875 6.03125 -2.1875 L 4.734375 -2.1875 C 4.65625 -1.375 4.140625 -0.90625 3.328125 -0.90625 C 2.3125 -0.90625 1.703125 -1.734375 1.703125 -3.125 C 1.703125 -4.546875 2.328125 -5.390625 3.375 -5.390625 C 4.140625 -5.390625 4.5625 -5.015625 4.734375 -4.234375 Z M 6 -4.234375 "/>
</g>
<g id="glyph-0-7">
<path d="M 0.59375 -6.40625 L 0.59375 0 L 1.828125 0 L 1.828125 -2.84375 C 1.828125 -3.390625 2.21875 -3.78125 2.765625 -3.78125 C 3.046875 -3.78125 3.25 -3.6875 3.390625 -3.5 C 3.5 -3.328125 3.53125 -3.203125 3.53125 -2.90625 L 3.53125 0 L 4.765625 0 L 4.765625 -3.1875 C 4.765625 -3.78125 4.59375 -4.203125 4.28125 -4.46875 C 4 -4.703125 3.609375 -4.828125 3.203125 -4.828125 C 2.609375 -4.828125 2.15625 -4.59375 1.828125 -4.0625 L 1.828125 -6.40625 Z M 0.59375 -6.40625 "/>
</g>
<g id="glyph-0-8">
<path d="M 1.90625 -2.78125 C 2.390625 -2.78125 2.40625 -2.78125 2.625 -2.734375 C 3.046875 -2.609375 3.3125 -2.25 3.3125 -1.796875 C 3.3125 -1.234375 2.921875 -0.859375 2.390625 -0.859375 C 1.796875 -0.859375 1.484375 -1.1875 1.453125 -1.828125 L 0.25 -1.828125 C 0.265625 -0.578125 1.078125 0.203125 2.359375 0.203125 C 3.6875 0.203125 4.546875 -0.578125 4.546875 -1.796875 C 4.546875 -2.53125 4.21875 -3 3.515625 -3.34375 C 4.09375 -3.703125 4.34375 -4.09375 4.34375 -4.671875 C 4.34375 -5.703125 3.5625 -6.375 2.359375 -6.375 C 1.453125 -6.375 0.75 -5.96875 0.484375 -5.296875 C 0.375 -5 0.328125 -4.796875 0.328125 -4.28125 L 1.484375 -4.28125 C 1.484375 -4.609375 1.515625 -4.78125 1.578125 -4.9375 C 1.6875 -5.203125 1.96875 -5.375 2.328125 -5.375 C 2.828125 -5.375 3.109375 -5.078125 3.109375 -4.5625 C 3.109375 -3.921875 2.75 -3.609375 2.015625 -3.609375 L 1.90625 -3.609375 Z M 1.90625 -2.78125 "/>
</g>
<g id="glyph-0-9">
<path d="M 3.59375 -3.390625 C 3.8125 -3.515625 3.90625 -3.578125 4 -3.65625 C 4.25 -3.890625 4.40625 -4.28125 4.40625 -4.6875 C 4.40625 -5.65625 3.5625 -6.375 2.40625 -6.375 C 1.25 -6.375 0.40625 -5.65625 0.40625 -4.671875 C 0.40625 -4.078125 0.65625 -3.6875 1.21875 -3.390625 C 0.5 -3 0.1875 -2.53125 0.1875 -1.796875 C 0.1875 -0.609375 1.09375 0.203125 2.40625 0.203125 C 3.71875 0.203125 4.625 -0.609375 4.625 -1.796875 C 4.625 -2.53125 4.3125 -3 3.59375 -3.390625 Z M 2.421875 -5.375 C 2.96875 -5.375 3.34375 -5.046875 3.34375 -4.5625 C 3.34375 -4.078125 2.953125 -3.734375 2.421875 -3.734375 C 1.859375 -3.734375 1.484375 -4.078125 1.484375 -4.5625 C 1.484375 -5.046875 1.859375 -5.375 2.421875 -5.375 Z M 2.40625 -2.90625 C 3.015625 -2.90625 3.390625 -2.5 3.390625 -1.84375 C 3.390625 -1.25 3 -0.859375 2.40625 -0.859375 C 1.796875 -0.859375 1.421875 -1.25 1.421875 -1.859375 C 1.421875 -2.5 1.796875 -2.90625 2.40625 -2.90625 Z M 2.40625 -2.90625 "/>
</g>
<g id="glyph-0-10">
<path d="M 5.34375 -4.453125 C 5.328125 -5.78125 4.4375 -6.515625 2.828125 -6.515625 C 1.28125 -6.515625 0.390625 -5.796875 0.390625 -4.546875 C 0.390625 -3.546875 0.890625 -3.0625 2.203125 -2.828125 L 3.09375 -2.640625 C 3.96875 -2.484375 4.296875 -2.234375 4.296875 -1.71875 C 4.296875 -1.171875 3.8125 -0.859375 3.015625 -0.859375 C 2.109375 -0.859375 1.609375 -1.234375 1.5625 -1.921875 L 0.28125 -1.921875 C 0.359375 -0.546875 1.296875 0.203125 2.9375 0.203125 C 4.59375 0.203125 5.5625 -0.5625 5.5625 -1.875 C 5.5625 -2.890625 5.0625 -3.40625 3.875 -3.640625 L 2.875 -3.828125 C 1.921875 -4.015625 1.65625 -4.203125 1.65625 -4.671875 C 1.65625 -5.15625 2.078125 -5.46875 2.765625 -5.46875 C 3.59375 -5.46875 4.0625 -5.109375 4.109375 -4.453125 Z M 5.34375 -4.453125 "/>
</g>
<g id="glyph-0-11">
<path d="M 0.671875 0 L 3.1875 0 C 4.15625 0 4.78125 -0.234375 5.21875 -0.75 C 5.71875 -1.34375 5.984375 -2.203125 5.984375 -3.203125 C 5.984375 -4.203125 5.71875 -5.0625 5.21875 -5.671875 C 4.78125 -6.1875 4.171875 -6.40625 3.1875 -6.40625 L 0.671875 -6.40625 Z M 2 -1.09375 L 2 -5.3125 L 3.1875 -5.3125 C 4.171875 -5.3125 4.671875 -4.625 4.671875 -3.203125 C 4.671875 -1.796875 4.171875 -1.09375 3.1875 -1.09375 Z M 2 -1.09375 "/>
</g>
<g id="glyph-0-12">
<path d="M 4.640625 -6.234375 L 0.25 -6.234375 L 0.25 -5.140625 L 3.359375 -5.140625 C 2.984375 -4.734375 2.234375 -3.59375 1.984375 -3.046875 C 1.5625 -2.140625 1.34375 -1.328125 1.171875 0 L 2.40625 0 C 2.53125 -1.96875 3.171875 -3.484375 4.640625 -5.265625 Z M 4.640625 -6.234375 "/>
</g>
<g id="glyph-1-0">
<path d="M 2.28125 -4.53125 L 2.28125 0 L 3.046875 0 L 3.046875 -6.359375 L 2.546875 -6.359375 C 2.265625 -5.390625 2.09375 -5.25 0.890625 -5.09375 L 0.890625 -4.53125 Z M 2.28125 -4.53125 "/>
</g>
<g id="glyph-1-1">
<path d="M 4.453125 -0.765625 L 1.171875 -0.765625 C 1.25 -1.296875 1.53125 -1.625 2.296875 -2.09375 L 3.171875 -2.59375 C 4.046875 -3.0625 4.5 -3.71875 4.5 -4.5 C 4.5 -5.03125 4.28125 -5.53125 3.921875 -5.875 C 3.546875 -6.203125 3.09375 -6.359375 2.5 -6.359375 C 1.703125 -6.359375 1.125 -6.078125 0.78125 -5.53125 C 0.546875 -5.203125 0.453125 -4.796875 0.4375 -4.15625 L 1.21875 -4.15625 C 1.234375 -4.59375 1.296875 -4.84375 1.40625 -5.0625 C 1.59375 -5.4375 2 -5.6875 2.46875 -5.6875 C 3.171875 -5.6875 3.703125 -5.171875 3.703125 -4.484375 C 3.703125 -3.96875 3.40625 -3.53125 2.859375 -3.21875 L 2.046875 -2.75 C 0.75 -2 0.375 -1.40625 0.296875 -0.015625 L 4.453125 -0.015625 Z M 4.453125 -0.765625 "/>
</g>
<g id="glyph-1-2">
<path d="M 4.1875 -6.234375 L 0.96875 -6.234375 L 0.5 -2.84375 L 1.21875 -2.84375 C 1.578125 -3.265625 1.875 -3.421875 2.359375 -3.421875 C 3.203125 -3.421875 3.71875 -2.84375 3.71875 -1.921875 C 3.71875 -1.03125 3.203125 -0.484375 2.359375 -0.484375 C 1.6875 -0.484375 1.265625 -0.828125 1.078125 -1.53125 L 0.3125 -1.53125 C 0.40625 -1.015625 0.5 -0.78125 0.6875 -0.546875 C 1.03125 -0.078125 1.671875 0.203125 2.375 0.203125 C 3.640625 0.203125 4.515625 -0.71875 4.515625 -2.03125 C 4.515625 -3.265625 3.6875 -4.109375 2.5 -4.109375 C 2.0625 -4.109375 1.703125 -4 1.34375 -3.734375 L 1.59375 -5.46875 L 4.1875 -5.46875 Z M 4.1875 -6.234375 "/>
</g>
<g id="glyph-1-3">
<path d="M 2.421875 -6.359375 C 1.84375 -6.359375 1.3125 -6.09375 0.984375 -5.671875 C 0.578125 -5.109375 0.375 -4.25 0.375 -3.078125 C 0.375 -0.9375 1.078125 0.203125 2.421875 0.203125 C 3.734375 0.203125 4.453125 -0.9375 4.453125 -3.03125 C 4.453125 -4.25 4.265625 -5.078125 3.859375 -5.671875 C 3.53125 -6.109375 3.015625 -6.359375 2.421875 -6.359375 Z M 2.421875 -5.671875 C 3.25 -5.671875 3.671875 -4.828125 3.671875 -3.09375 C 3.671875 -1.28125 3.265625 -0.4375 2.40625 -0.4375 C 1.578125 -0.4375 1.171875 -1.3125 1.171875 -3.0625 C 1.171875 -4.828125 1.578125 -5.671875 2.421875 -5.671875 Z M 2.421875 -5.671875 "/>
</g>
<g id="glyph-1-4">
</g>
<g id="glyph-1-5">
<path d="M 1.6875 -0.921875 L 0.765625 -0.921875 L 0.765625 0 L 1.6875 0 Z M 1.6875 -0.921875 "/>
</g>
<g id="glyph-1-6">
<path d="M 3.859375 -3.75 L 2.5625 -2.46875 L 1.28125 -3.75 L 0.84375 -3.3125 L 2.125 -2.03125 L 0.828125 -0.734375 L 1.28125 -0.3125 L 2.5625 -1.59375 L 3.859375 -0.296875 L 4.296875 -0.734375 L 3 -2.03125 L 4.28125 -3.3125 Z M 3.859375 -3.75 "/>
</g>
<g id="glyph-1-7">
<path d="M 1.9375 -2.921875 L 2.359375 -2.921875 C 3.203125 -2.921875 3.65625 -2.53125 3.65625 -1.765625 C 3.65625 -0.96875 3.171875 -0.484375 2.375 -0.484375 C 1.515625 -0.484375 1.109375 -0.921875 1.0625 -1.84375 L 0.28125 -1.84375 C 0.3125 -1.34375 0.40625 -1 0.546875 -0.71875 C 0.875 -0.109375 1.484375 0.203125 2.34375 0.203125 C 3.625 0.203125 4.453125 -0.578125 4.453125 -1.78125 C 4.453125 -2.59375 4.140625 -3.03125 3.390625 -3.296875 C 3.96875 -3.53125 4.265625 -3.96875 4.265625 -4.609375 C 4.265625 -5.703125 3.546875 -6.359375 2.359375 -6.359375 C 1.109375 -6.359375 0.4375 -5.65625 0.40625 -4.3125 L 1.1875 -4.3125 C 1.203125 -4.703125 1.234375 -4.921875 1.328125 -5.109375 C 1.5 -5.46875 1.890625 -5.6875 2.375 -5.6875 C 3.0625 -5.6875 3.46875 -5.265625 3.46875 -4.578125 C 3.46875 -4.140625 3.3125 -3.859375 2.96875 -3.71875 C 2.765625 -3.625 2.484375 -3.59375 1.9375 -3.578125 Z M 1.9375 -2.921875 "/>
</g>
<g id="glyph-1-8">
<path d="M 2.875 -1.546875 L 2.875 0 L 3.65625 0 L 3.65625 -1.546875 L 4.578125 -1.546875 L 4.578125 -2.234375 L 3.65625 -2.234375 L 3.65625 -6.359375 L 3.078125 -6.359375 L 0.25 -2.359375 L 0.25 -1.546875 Z M 2.875 -2.234375 L 0.921875 -2.234375 L 2.875 -5.046875 Z M 2.875 -2.234375 "/>
</g>
<g id="glyph-2-0">
<path d="M 6.671875 -5.578125 C 6.671875 -7.234375 5.5625 -8.15625 3.53125 -8.15625 C 1.609375 -8.15625 0.5 -7.25 0.5 -5.6875 C 0.5 -4.4375 1.125 -3.84375 2.75 -3.53125 L 3.875 -3.3125 C 4.96875 -3.109375 5.375 -2.796875 5.375 -2.140625 C 5.375 -1.46875 4.765625 -1.0625 3.765625 -1.0625 C 2.640625 -1.0625 2.015625 -1.546875 1.953125 -2.390625 L 0.359375 -2.390625 C 0.453125 -0.6875 1.625 0.25 3.671875 0.25 C 5.734375 0.25 6.96875 -0.703125 6.96875 -2.34375 C 6.96875 -3.609375 6.328125 -4.265625 4.84375 -4.546875 L 3.59375 -4.796875 C 2.40625 -5.03125 2.0625 -5.265625 2.0625 -5.84375 C 2.0625 -6.453125 2.59375 -6.828125 3.453125 -6.828125 C 4.5 -6.828125 5.078125 -6.390625 5.140625 -5.578125 Z M 6.671875 -5.578125 "/>
</g>
<g id="glyph-2-1">
<path d="M 5.765625 -0.1875 C 5.5 -0.4375 5.40625 -0.609375 5.40625 -0.90625 L 5.40625 -4.21875 C 5.40625 -5.421875 4.59375 -6.03125 2.984375 -6.03125 C 1.375 -6.03125 0.53125 -5.359375 0.4375 -3.984375 L 1.921875 -3.984375 C 2 -4.59375 2.25 -4.796875 3.015625 -4.796875 C 3.609375 -4.796875 3.90625 -4.59375 3.90625 -4.203125 C 3.90625 -4 3.8125 -3.84375 3.640625 -3.734375 C 3.4375 -3.625 3.4375 -3.625 2.671875 -3.515625 L 2.0625 -3.40625 C 0.875 -3.203125 0.3125 -2.59375 0.3125 -1.53125 C 0.3125 -0.46875 1.015625 0.25 2.109375 0.25 C 2.765625 0.25 3.359375 -0.015625 3.921875 -0.59375 C 3.921875 -0.28125 3.953125 -0.171875 4.09375 0 L 5.765625 0 Z M 3.90625 -2.390625 C 3.90625 -1.5 3.46875 -0.984375 2.6875 -0.984375 C 2.171875 -0.984375 1.84375 -1.265625 1.84375 -1.703125 C 1.84375 -2.171875 2.09375 -2.390625 2.734375 -2.515625 L 3.25 -2.625 C 3.65625 -2.6875 3.734375 -2.71875 3.90625 -2.8125 Z M 3.90625 -2.390625 "/>
</g>
<g id="glyph-2-2">
<path d="M 0.65625 -5.9375 L 0.65625 0 L 2.203125 0 L 2.203125 -3.5625 C 2.203125 -4.296875 2.59375 -4.734375 3.25 -4.734375 C 3.765625 -4.734375 4.09375 -4.4375 4.09375 -3.953125 L 4.09375 0 L 5.625 0 L 5.625 -3.5625 C 5.625 -4.296875 6.03125 -4.734375 6.6875 -4.734375 C 7.203125 -4.734375 7.53125 -4.4375 7.53125 -3.953125 L 7.53125 0 L 9.0625 0 L 9.0625 -4.203125 C 9.0625 -5.359375 8.359375 -6.03125 7.171875 -6.03125 C 6.40625 -6.03125 5.890625 -5.78125 5.4375 -5.15625 C 5.140625 -5.71875 4.546875 -6.03125 3.8125 -6.03125 C 3.140625 -6.03125 2.6875 -5.8125 2.1875 -5.203125 L 2.1875 -5.9375 Z M 0.65625 -5.9375 "/>
</g>
<g id="glyph-2-3">
<path d="M 2.171875 -5.9375 L 0.640625 -5.9375 L 0.640625 2.390625 L 2.171875 2.390625 L 2.171875 -0.703125 C 2.546875 -0.046875 3.078125 0.265625 3.828125 0.265625 C 5.265625 0.265625 6.3125 -1.078125 6.3125 -2.875 C 6.3125 -3.71875 6.078125 -4.546875 5.671875 -5.109375 C 5.28125 -5.671875 4.546875 -6.03125 3.828125 -6.03125 C 3.078125 -6.03125 2.546875 -5.71875 2.171875 -5.0625 Z M 3.46875 -4.75 C 4.25 -4.75 4.78125 -4 4.78125 -2.859375 C 4.78125 -1.765625 4.25 -1.015625 3.46875 -1.015625 C 2.6875 -1.015625 2.171875 -1.765625 2.171875 -2.875 C 2.171875 -4 2.6875 -4.75 3.46875 -4.75 Z M 3.46875 -4.75 "/>
</g>
<g id="glyph-2-4">
<path d="M 2.28125 -8.015625 L 0.734375 -8.015625 L 0.734375 0 L 2.28125 0 Z M 2.28125 -8.015625 "/>
</g>
<g id="glyph-2-5">
<path d="M 5.765625 -2.484375 C 5.78125 -2.625 5.78125 -2.671875 5.78125 -2.75 C 5.78125 -3.34375 5.6875 -3.890625 5.546875 -4.3125 C 5.140625 -5.390625 4.1875 -6.03125 2.984375 -6.03125 C 1.28125 -6.03125 0.234375 -4.8125 0.234375 -2.8125 C 0.234375 -0.90625 1.28125 0.25 2.953125 0.25 C 4.296875 0.25 5.375 -0.5 5.703125 -1.671875 L 4.1875 -1.671875 C 4 -1.203125 3.578125 -0.921875 3.015625 -0.921875 C 2.578125 -0.921875 2.21875 -1.109375 2 -1.4375 C 1.859375 -1.65625 1.796875 -1.921875 1.78125 -2.484375 Z M 1.796875 -3.515625 C 1.90625 -4.421875 2.28125 -4.859375 2.96875 -4.859375 C 3.671875 -4.859375 4.09375 -4.390625 4.171875 -3.515625 Z M 1.796875 -3.515625 "/>
</g>
<g id="glyph-2-6">
<path d="M 5.5625 -4.03125 C 5.53125 -5.28125 4.5625 -6.03125 2.96875 -6.03125 C 1.46875 -6.03125 0.53125 -5.28125 0.53125 -4.0625 C 0.53125 -3.65625 0.65625 -3.328125 0.859375 -3.09375 C 1.0625 -2.875 1.25 -2.78125 1.828125 -2.59375 L 3.65625 -2.03125 C 4.046875 -1.90625 4.1875 -1.78125 4.1875 -1.546875 C 4.1875 -1.171875 3.75 -0.953125 3.03125 -0.953125 C 2.625 -0.953125 2.328125 -1.015625 2.125 -1.171875 C 1.953125 -1.28125 1.890625 -1.40625 1.828125 -1.734375 L 0.3125 -1.734375 C 0.359375 -0.421875 1.3125 0.25 3.125 0.25 C 3.953125 0.25 4.578125 0.078125 5.015625 -0.28125 C 5.453125 -0.625 5.71875 -1.171875 5.71875 -1.765625 C 5.71875 -2.53125 5.328125 -3.03125 4.546875 -3.25 L 2.609375 -3.8125 C 2.171875 -3.953125 2.0625 -4.03125 2.0625 -4.28125 C 2.0625 -4.609375 2.421875 -4.828125 2.953125 -4.828125 C 3.703125 -4.828125 4.0625 -4.5625 4.0625 -4.03125 Z M 5.5625 -4.03125 "/>
</g>
<g id="glyph-2-7">
</g>
<g id="glyph-2-8">
<path d="M 0.734375 -8.015625 L 0.734375 0 L 2.28125 0 L 2.28125 -3.5625 C 2.28125 -4.25 2.765625 -4.734375 3.46875 -4.734375 C 3.8125 -4.734375 4.0625 -4.609375 4.234375 -4.359375 C 4.375 -4.171875 4.40625 -4 4.40625 -3.625 L 4.40625 0 L 5.953125 0 L 5.953125 -3.984375 C 5.953125 -4.71875 5.75 -5.25 5.34375 -5.59375 C 5 -5.875 4.515625 -6.03125 4.015625 -6.03125 C 3.25 -6.03125 2.703125 -5.734375 2.28125 -5.078125 L 2.28125 -8.015625 Z M 0.734375 -8.015625 "/>
</g>
<g id="glyph-2-9">
<path d="M 0.6875 -5.9375 L 0.6875 0 L 2.234375 0 L 2.234375 -3.15625 C 2.234375 -4.0625 2.6875 -4.515625 3.59375 -4.515625 C 3.75 -4.515625 3.859375 -4.5 4.0625 -4.46875 L 4.0625 -6.03125 C 3.984375 -6.03125 3.953125 -6.03125 3.890625 -6.03125 C 3.171875 -6.03125 2.578125 -5.578125 2.234375 -4.78125 L 2.234375 -5.9375 Z M 0.6875 -5.9375 "/>
</g>
<g id="glyph-2-10">
<path d="M 2.28125 -5.9375 L 0.734375 -5.9375 L 0.734375 0 L 2.28125 0 Z M 2.28125 -8.015625 L 0.734375 -8.015625 L 0.734375 -6.640625 L 2.28125 -6.640625 Z M 2.28125 -8.015625 "/>
</g>
<g id="glyph-2-11">
<path d="M 0.6875 -5.9375 L 0.6875 0 L 2.234375 0 L 2.234375 -3.5625 C 2.234375 -4.265625 2.71875 -4.734375 3.46875 -4.734375 C 4.140625 -4.734375 4.46875 -4.359375 4.46875 -3.65625 L 4.46875 0 L 6 0 L 6 -3.984375 C 6 -5.296875 5.296875 -6.03125 4.015625 -6.03125 C 3.21875 -6.03125 2.671875 -5.75 2.234375 -5.078125 L 2.234375 -5.9375 Z M 0.6875 -5.9375 "/>
</g>
<g id="glyph-2-12">
<path d="M 4.40625 -5.9375 L 4.40625 -5.03125 C 3.96875 -5.71875 3.5 -6.03125 2.875 -6.03125 C 2.34375 -6.03125 1.765625 -5.78125 1.359375 -5.34375 C 0.765625 -4.734375 0.453125 -3.875 0.453125 -2.828125 C 0.453125 -1 1.421875 0.25 2.84375 0.25 C 3.46875 0.25 3.859375 0.046875 4.40625 -0.609375 L 4.40625 0.203125 C 4.40625 0.90625 3.890625 1.40625 3.171875 1.40625 C 2.625 1.40625 2.28125 1.171875 2.15625 0.71875 L 0.578125 0.71875 C 0.578125 1.171875 0.75 1.5 1.15625 1.828125 C 1.625 2.21875 2.28125 2.390625 3.109375 2.390625 C 4.828125 2.390625 5.859375 1.578125 5.859375 0.203125 L 5.859375 -5.9375 Z M 3.15625 -4.75 C 3.890625 -4.75 4.421875 -3.953125 4.421875 -2.84375 C 4.421875 -1.765625 3.90625 -1.03125 3.140625 -1.03125 C 2.46875 -1.03125 1.984375 -1.765625 1.984375 -2.84375 C 1.984375 -3.96875 2.46875 -4.75 3.15625 -4.75 Z M 3.15625 -4.75 "/>
</g>
<g id="glyph-2-13">
<path d="M 3.3125 -5.8125 L 2.453125 -5.8125 L 2.453125 -7.40625 L 0.90625 -7.40625 L 0.90625 -5.8125 L 0.15625 -5.8125 L 0.15625 -4.796875 L 0.90625 -4.796875 L 0.90625 -1.140625 C 0.90625 -0.203125 1.40625 0.25 2.421875 0.25 C 2.765625 0.25 3.03125 0.21875 3.3125 0.125 L 3.3125 -0.953125 C 3.15625 -0.921875 3.078125 -0.90625 2.953125 -0.90625 C 2.546875 -0.90625 2.453125 -1.03125 2.453125 -1.5625 L 2.453125 -4.796875 L 3.3125 -4.796875 Z M 3.3125 -5.8125 "/>
</g>
<g id="glyph-2-14">
<path d="M 5.734375 -3.71875 C 5.625 -5.171875 4.671875 -6.03125 3.171875 -6.03125 C 1.390625 -6.03125 0.375 -4.875 0.375 -2.84375 C 0.375 -0.890625 1.390625 0.25 3.15625 0.25 C 4.59375 0.25 5.59375 -0.640625 5.734375 -2.0625 L 4.265625 -2.0625 C 4.078125 -1.28125 3.765625 -0.984375 3.15625 -0.984375 C 2.375 -0.984375 1.90625 -1.6875 1.90625 -2.84375 C 1.90625 -3.421875 2.03125 -3.9375 2.21875 -4.296875 C 2.390625 -4.625 2.734375 -4.796875 3.171875 -4.796875 C 3.796875 -4.796875 4.09375 -4.5 4.265625 -3.71875 Z M 5.734375 -3.71875 "/>
</g>
<g id="glyph-2-15">
<path d="M 5.953125 0 L 5.953125 -5.9375 L 4.40625 -5.9375 L 4.40625 -2.21875 C 4.40625 -1.515625 3.921875 -1.0625 3.171875 -1.0625 C 2.515625 -1.0625 2.171875 -1.40625 2.171875 -2.125 L 2.171875 -5.9375 L 0.640625 -5.9375 L 0.640625 -1.796875 C 0.640625 -0.484375 1.359375 0.25 2.625 0.25 C 3.4375 0.25 3.96875 -0.03125 4.40625 -0.703125 L 4.40625 0 Z M 5.953125 0 "/>
</g>
<g id="glyph-2-16">
<path d="M 3.3125 -6.03125 C 1.5 -6.03125 0.390625 -4.84375 0.390625 -2.890625 C 0.390625 -0.9375 1.5 0.25 3.328125 0.25 C 5.140625 0.25 6.265625 -0.9375 6.265625 -2.84375 C 6.265625 -4.859375 5.171875 -6.03125 3.3125 -6.03125 Z M 3.328125 -4.796875 C 4.171875 -4.796875 4.71875 -4.03125 4.71875 -2.875 C 4.71875 -1.765625 4.140625 -0.984375 3.328125 -0.984375 C 2.484375 -0.984375 1.921875 -1.75 1.921875 -2.890625 C 1.921875 -4.03125 2.484375 -4.796875 3.328125 -4.796875 Z M 3.328125 -4.796875 "/>
</g>
<g id="glyph-2-17">
<path d="M 2.234375 -8.015625 C 0.96875 -6.109375 0.4375 -4.609375 0.4375 -2.921875 C 0.4375 -1.203125 0.96875 0.28125 2.234375 2.203125 L 3.328125 2.203125 C 2.15625 -0.0625 1.796875 -1.28125 1.796875 -2.921875 C 1.796875 -4.53125 2.171875 -5.78125 3.328125 -8.015625 Z M 2.234375 -8.015625 "/>
</g>
<g id="glyph-2-18">
<path d="M 1.34375 2.203125 C 2.609375 0.28125 3.140625 -1.203125 3.140625 -2.90625 C 3.140625 -4.609375 2.609375 -6.109375 1.34375 -8.015625 L 0.234375 -8.015625 C 1.421875 -5.75 1.78125 -4.53125 1.78125 -2.90625 C 1.78125 -1.28125 1.40625 -0.046875 0.234375 2.203125 Z M 1.34375 2.203125 "/>
</g>
<g id="glyph-3-0">
<path d="M -3.453125 -2.515625 L -3.453125 -6.359375 L -4.828125 -6.359375 L -4.828125 -2.515625 L -6.640625 -2.515625 L -6.640625 -6.671875 L -8.015625 -6.671875 L -8.015625 -0.875 L 0 -0.875 L 0 -6.859375 L -1.375 -6.859375 L -1.375 -2.515625 Z M -3.453125 -2.515625 "/>
</g>
<g id="glyph-3-1">
<path d="M -5.8125 -3.4375 L -5.8125 -2.53125 L -6.40625 -2.53125 C -6.703125 -2.53125 -6.859375 -2.65625 -6.859375 -2.953125 C -6.859375 -3.09375 -6.859375 -3.234375 -6.828125 -3.390625 L -7.984375 -3.390625 C -8.015625 -3.0625 -8.015625 -2.734375 -8.015625 -2.515625 C -8.015625 -1.484375 -7.53125 -0.984375 -6.53125 -0.984375 L -5.8125 -0.984375 L -5.8125 -0.15625 L -4.796875 -0.15625 L -4.796875 -0.984375 L 0 -0.984375 L 0 -2.53125 L -4.796875 -2.53125 L -4.796875 -3.4375 Z M -5.8125 -7.109375 L -5.8125 -6.1875 L -6.40625 -6.1875 C -6.703125 -6.1875 -6.859375 -6.328125 -6.859375 -6.609375 C -6.859375 -6.75 -6.859375 -6.890625 -6.828125 -7.046875 L -7.984375 -7.046875 C -8.015625 -6.71875 -8.015625 -6.40625 -8.015625 -6.171875 C -8.015625 -5.140625 -7.53125 -4.65625 -6.53125 -4.65625 L -5.8125 -4.65625 L -5.8125 -3.8125 L -4.796875 -3.8125 L -4.796875 -4.65625 L 0 -4.65625 L 0 -6.1875 L -4.796875 -6.1875 L -4.796875 -7.109375 Z M -5.8125 -7.109375 "/>
</g>
<g id="glyph-3-2">
<path d="M -2.484375 -5.765625 C -2.625 -5.78125 -2.671875 -5.78125 -2.75 -5.78125 C -3.34375 -5.78125 -3.890625 -5.6875 -4.3125 -5.546875 C -5.390625 -5.140625 -6.03125 -4.1875 -6.03125 -2.984375 C -6.03125 -1.28125 -4.8125 -0.234375 -2.8125 -0.234375 C -0.90625 -0.234375 0.25 -1.28125 0.25 -2.953125 C 0.25 -4.296875 -0.5 -5.375 -1.671875 -5.703125 L -1.671875 -4.1875 C -1.203125 -4 -0.921875 -3.578125 -0.921875 -3.015625 C -0.921875 -2.578125 -1.109375 -2.21875 -1.4375 -2 C -1.65625 -1.859375 -1.921875 -1.796875 -2.484375 -1.78125 Z M -3.515625 -1.796875 C -4.421875 -1.90625 -4.859375 -2.28125 -4.859375 -2.96875 C -4.859375 -3.671875 -4.390625 -4.09375 -3.515625 -4.171875 Z M -3.515625 -1.796875 "/>
</g>
<g id="glyph-3-3">
<path d="M -3.71875 -5.734375 C -5.171875 -5.625 -6.03125 -4.671875 -6.03125 -3.171875 C -6.03125 -1.390625 -4.875 -0.375 -2.84375 -0.375 C -0.890625 -0.375 0.25 -1.390625 0.25 -3.15625 C 0.25 -4.59375 -0.640625 -5.59375 -2.0625 -5.734375 L -2.0625 -4.265625 C -1.28125 -4.078125 -0.984375 -3.765625 -0.984375 -3.15625 C -0.984375 -2.375 -1.6875 -1.90625 -2.84375 -1.90625 C -3.421875 -1.90625 -3.9375 -2.03125 -4.296875 -2.21875 C -4.625 -2.390625 -4.796875 -2.734375 -4.796875 -3.171875 C -4.796875 -3.796875 -4.5 -4.09375 -3.71875 -4.265625 Z M -3.71875 -5.734375 "/>
</g>
<g id="glyph-3-4">
<path d="M -5.8125 -3.3125 L -5.8125 -2.453125 L -7.40625 -2.453125 L -7.40625 -0.90625 L -5.8125 -0.90625 L -5.8125 -0.15625 L -4.796875 -0.15625 L -4.796875 -0.90625 L -1.140625 -0.90625 C -0.203125 -0.90625 0.25 -1.40625 0.25 -2.421875 C 0.25 -2.765625 0.21875 -3.03125 0.125 -3.3125 L -0.953125 -3.3125 C -0.921875 -3.15625 -0.90625 -3.078125 -0.90625 -2.953125 C -0.90625 -2.546875 -1.03125 -2.453125 -1.5625 -2.453125 L -4.796875 -2.453125 L -4.796875 -3.3125 Z M -5.8125 -3.3125 "/>
</g>
<g id="glyph-3-5">
<path d="M -5.9375 -2.28125 L -5.9375 -0.734375 L 0 -0.734375 L 0 -2.28125 Z M -8.015625 -2.28125 L -8.015625 -0.734375 L -6.640625 -0.734375 L -6.640625 -2.28125 Z M -8.015625 -2.28125 "/>
</g>
<g id="glyph-3-6">
<path d="M 0 -3.84375 L -5.9375 -5.890625 L -5.9375 -4.265625 L -1.59375 -3.0625 L -5.9375 -1.78125 L -5.9375 -0.15625 L 0 -2.234375 Z M 0 -3.84375 "/>
</g>
<g id="glyph-3-7">
</g>
<g id="glyph-3-8">
<path d="M -4.03125 -5.5625 C -5.28125 -5.53125 -6.03125 -4.5625 -6.03125 -2.96875 C -6.03125 -1.46875 -5.28125 -0.53125 -4.0625 -0.53125 C -3.65625 -0.53125 -3.328125 -0.65625 -3.09375 -0.859375 C -2.875 -1.0625 -2.78125 -1.25 -2.59375 -1.828125 L -2.03125 -3.65625 C -1.90625 -4.046875 -1.78125 -4.1875 -1.546875 -4.1875 C -1.171875 -4.1875 -0.953125 -3.75 -0.953125 -3.03125 C -0.953125 -2.625 -1.015625 -2.328125 -1.171875 -2.125 C -1.28125 -1.953125 -1.40625 -1.890625 -1.734375 -1.828125 L -1.734375 -0.3125 C -0.421875 -0.359375 0.25 -1.3125 0.25 -3.125 C 0.25 -3.953125 0.078125 -4.578125 -0.28125 -5.015625 C -0.625 -5.453125 -1.171875 -5.71875 -1.765625 -5.71875 C -2.53125 -5.71875 -3.03125 -5.328125 -3.25 -4.546875 L -3.8125 -2.609375 C -3.953125 -2.171875 -4.03125 -2.0625 -4.28125 -2.0625 C -4.609375 -2.0625 -4.828125 -2.421875 -4.828125 -2.953125 C -4.828125 -3.703125 -4.5625 -4.0625 -4.03125 -4.0625 Z M -4.03125 -5.5625 "/>
</g>
<g id="glyph-3-9">
<path d="M -5.9375 -2.171875 L -5.9375 -0.640625 L 2.390625 -0.640625 L 2.390625 -2.171875 L -0.703125 -2.171875 C -0.046875 -2.546875 0.265625 -3.078125 0.265625 -3.828125 C 0.265625 -5.265625 -1.078125 -6.3125 -2.875 -6.3125 C -3.71875 -6.3125 -4.546875 -6.078125 -5.109375 -5.671875 C -5.671875 -5.28125 -6.03125 -4.546875 -6.03125 -3.828125 C -6.03125 -3.078125 -5.71875 -2.546875 -5.0625 -2.171875 Z M -4.75 -3.46875 C -4.75 -4.25 -4 -4.78125 -2.859375 -4.78125 C -1.765625 -4.78125 -1.015625 -4.25 -1.015625 -3.46875 C -1.015625 -2.6875 -1.765625 -2.171875 -2.875 -2.171875 C -4 -2.171875 -4.75 -2.6875 -4.75 -3.46875 Z M -4.75 -3.46875 "/>
</g>
<g id="glyph-3-10">
<path d="M 0 -4.453125 L 0 -6 L -8.015625 -6 L -8.015625 -4.453125 L -5.171875 -4.453125 C -5.765625 -4.0625 -6.03125 -3.5625 -6.03125 -2.8125 C -6.03125 -1.390625 -4.671875 -0.3125 -2.875 -0.3125 C -2.078125 -0.3125 -1.265625 -0.5625 -0.6875 -0.953125 C -0.109375 -1.359375 0.25 -2.09375 0.25 -2.8125 C 0.25 -3.5625 -0.015625 -4.0625 -0.609375 -4.453125 Z M -4.75 -3.15625 C -4.75 -3.9375 -4 -4.453125 -2.859375 -4.453125 C -1.78125 -4.453125 -1.03125 -3.921875 -1.03125 -3.15625 C -1.03125 -2.390625 -1.796875 -1.859375 -2.875 -1.859375 C -4 -1.859375 -4.75 -2.390625 -4.75 -3.15625 Z M -4.75 -3.15625 "/>
</g>
<g id="glyph-3-11">
<path d="M 0 -5.953125 L -5.9375 -5.953125 L -5.9375 -4.40625 L -2.21875 -4.40625 C -1.515625 -4.40625 -1.0625 -3.921875 -1.0625 -3.171875 C -1.0625 -2.515625 -1.40625 -2.171875 -2.125 -2.171875 L -5.9375 -2.171875 L -5.9375 -0.640625 L -1.796875 -0.640625 C -0.484375 -0.640625 0.25 -1.359375 0.25 -2.625 C 0.25 -3.4375 -0.03125 -3.96875 -0.703125 -4.40625 L 0 -4.40625 Z M 0 -5.953125 "/>
</g>
<g id="glyph-3-12">
<path d="M -5.9375 -0.6875 L 0 -0.6875 L 0 -2.234375 L -3.15625 -2.234375 C -4.0625 -2.234375 -4.515625 -2.6875 -4.515625 -3.59375 C -4.515625 -3.75 -4.5 -3.859375 -4.46875 -4.0625 L -6.03125 -4.0625 C -6.03125 -3.984375 -6.03125 -3.953125 -6.03125 -3.890625 C -6.03125 -3.171875 -5.578125 -2.578125 -4.78125 -2.234375 L -5.9375 -2.234375 Z M -5.9375 -0.6875 "/>
</g>
<g id="glyph-3-13">
<path d="M -0.1875 -5.765625 C -0.4375 -5.5 -0.609375 -5.40625 -0.90625 -5.40625 L -4.21875 -5.40625 C -5.421875 -5.40625 -6.03125 -4.59375 -6.03125 -2.984375 C -6.03125 -1.375 -5.359375 -0.53125 -3.984375 -0.4375 L -3.984375 -1.921875 C -4.59375 -2 -4.796875 -2.25 -4.796875 -3.015625 C -4.796875 -3.609375 -4.59375 -3.90625 -4.203125 -3.90625 C -4 -3.90625 -3.84375 -3.8125 -3.734375 -3.640625 C -3.625 -3.4375 -3.625 -3.4375 -3.515625 -2.671875 L -3.40625 -2.0625 C -3.203125 -0.875 -2.59375 -0.3125 -1.53125 -0.3125 C -0.46875 -0.3125 0.25 -1.015625 0.25 -2.109375 C 0.25 -2.765625 -0.015625 -3.359375 -0.59375 -3.921875 C -0.28125 -3.921875 -0.171875 -3.953125 0 -4.09375 L 0 -5.765625 Z M -2.390625 -3.90625 C -1.5 -3.90625 -0.984375 -3.46875 -0.984375 -2.6875 C -0.984375 -2.171875 -1.265625 -1.84375 -1.703125 -1.84375 C -2.171875 -1.84375 -2.390625 -2.09375 -2.515625 -2.734375 L -2.625 -3.25 C -2.6875 -3.65625 -2.71875 -3.734375 -2.8125 -3.90625 Z M -2.390625 -3.90625 "/>
</g>
<g id="glyph-3-14">
<path d="M -5.9375 -0.65625 L 0 -0.65625 L 0 -2.203125 L -3.5625 -2.203125 C -4.296875 -2.203125 -4.734375 -2.59375 -4.734375 -3.25 C -4.734375 -3.765625 -4.4375 -4.09375 -3.953125 -4.09375 L 0 -4.09375 L 0 -5.625 L -3.5625 -5.625 C -4.296875 -5.625 -4.734375 -6.03125 -4.734375 -6.6875 C -4.734375 -7.203125 -4.4375 -7.53125 -3.953125 -7.53125 L 0 -7.53125 L 0 -9.0625 L -4.203125 -9.0625 C -5.359375 -9.0625 -6.03125 -8.359375 -6.03125 -7.171875 C -6.03125 -6.40625 -5.78125 -5.890625 -5.15625 -5.4375 C -5.71875 -5.140625 -6.03125 -4.546875 -6.03125 -3.8125 C -6.03125 -3.140625 -5.8125 -2.6875 -5.203125 -2.1875 L -5.9375 -2.1875 Z M -5.9375 -0.65625 "/>
</g>
<g id="glyph-3-15">
<path d="M -8.015625 -2.28125 L -8.015625 -0.734375 L 0 -0.734375 L 0 -2.28125 Z M -8.015625 -2.28125 "/>
</g>
<g id="glyph-4-0">
<path d="M 2.015625 -3.65625 L 6.375 -3.65625 L 6.375 -4.546875 L 2.015625 -4.546875 L 2.015625 -7.109375 L 6.546875 -7.109375 L 6.546875 -8.015625 L 0.984375 -8.015625 L 0.984375 0 L 6.75 0 L 6.75 -0.90625 L 2.015625 -0.90625 Z M 2.015625 -3.65625 "/>
</g>
<g id="glyph-4-1">
<path d="M 2.859375 -5.765625 L 1.90625 -5.765625 L 1.90625 -6.671875 C 1.90625 -7.046875 2.109375 -7.25 2.546875 -7.25 C 2.625 -7.25 2.65625 -7.25 2.859375 -7.234375 L 2.859375 -8 C 2.65625 -8.046875 2.53125 -8.046875 2.34375 -8.046875 C 1.5 -8.046875 0.984375 -7.5625 0.984375 -6.75 L 0.984375 -5.765625 L 0.21875 -5.765625 L 0.21875 -5.015625 L 0.984375 -5.015625 L 0.984375 0 L 1.90625 0 L 1.90625 -5.015625 L 2.859375 -5.015625 Z M 5.8125 -5.765625 L 4.859375 -5.765625 L 4.859375 -6.671875 C 4.859375 -7.046875 5.078125 -7.25 5.5 -7.25 C 5.578125 -7.25 5.609375 -7.25 5.8125 -7.234375 L 5.8125 -8 C 5.609375 -8.046875 5.484375 -8.046875 5.296875 -8.046875 C 4.453125 -8.046875 3.953125 -7.5625 3.953125 -6.75 L 3.953125 -5.765625 L 3.171875 -5.765625 L 3.171875 -5.015625 L 3.953125 -5.015625 L 3.953125 0 L 4.859375 0 L 4.859375 -5.015625 L 5.8125 -5.015625 Z M 5.8125 -5.765625 "/>
</g>
<g id="glyph-4-2">
<path d="M 5.640625 -2.578125 C 5.640625 -3.453125 5.578125 -3.984375 5.40625 -4.40625 C 5.03125 -5.359375 4.15625 -5.921875 3.078125 -5.921875 C 1.46875 -5.921875 0.4375 -4.703125 0.4375 -2.8125 C 0.4375 -0.90625 1.4375 0.25 3.0625 0.25 C 4.375 0.25 5.296875 -0.5 5.515625 -1.75 L 4.59375 -1.75 C 4.34375 -0.984375 3.828125 -0.59375 3.09375 -0.59375 C 2.515625 -0.59375 2.015625 -0.859375 1.703125 -1.34375 C 1.484375 -1.671875 1.40625 -2 1.390625 -2.578125 Z M 1.421875 -3.328125 C 1.5 -4.390625 2.140625 -5.078125 3.0625 -5.078125 C 4 -5.078125 4.65625 -4.359375 4.65625 -3.328125 Z M 1.421875 -3.328125 "/>
</g>
<g id="glyph-4-3">
<path d="M 5.1875 -3.828125 C 5.140625 -4.390625 5.015625 -4.75 4.796875 -5.078125 C 4.40625 -5.609375 3.703125 -5.921875 2.90625 -5.921875 C 1.34375 -5.921875 0.34375 -4.703125 0.34375 -2.78125 C 0.34375 -0.921875 1.328125 0.25 2.890625 0.25 C 4.265625 0.25 5.140625 -0.578125 5.25 -1.984375 L 4.328125 -1.984375 C 4.171875 -1.0625 3.703125 -0.59375 2.921875 -0.59375 C 1.90625 -0.59375 1.296875 -1.421875 1.296875 -2.78125 C 1.296875 -4.21875 1.890625 -5.078125 2.890625 -5.078125 C 3.65625 -5.078125 4.140625 -4.625 4.25 -3.828125 Z M 5.1875 -3.828125 "/>
</g>
<g id="glyph-4-4">
<path d="M 2.796875 -5.765625 L 1.84375 -5.765625 L 1.84375 -7.34375 L 0.9375 -7.34375 L 0.9375 -5.765625 L 0.15625 -5.765625 L 0.15625 -5.015625 L 0.9375 -5.015625 L 0.9375 -0.65625 C 0.9375 -0.0625 1.328125 0.25 2.046875 0.25 C 2.28125 0.25 2.484375 0.234375 2.796875 0.171875 L 2.796875 -0.59375 C 2.65625 -0.5625 2.546875 -0.546875 2.359375 -0.546875 C 1.953125 -0.546875 1.84375 -0.65625 1.84375 -1.0625 L 1.84375 -5.015625 L 2.796875 -5.015625 Z M 2.796875 -5.765625 "/>
</g>
<g id="glyph-4-5">
<path d="M 1.65625 -5.765625 L 0.734375 -5.765625 L 0.734375 0 L 1.65625 0 Z M 1.65625 -8.015625 L 0.71875 -8.015625 L 0.71875 -6.859375 L 1.65625 -6.859375 Z M 1.65625 -8.015625 "/>
</g>
<g id="glyph-4-6">
<path d="M 3.140625 0 L 5.34375 -5.765625 L 4.3125 -5.765625 L 2.6875 -1.09375 L 1.140625 -5.765625 L 0.109375 -5.765625 L 2.140625 0 Z M 3.140625 0 "/>
</g>
<g id="glyph-4-7">
</g>
<g id="glyph-4-8">
<path d="M 4.8125 -4.15625 C 4.8125 -5.296875 4.0625 -5.921875 2.734375 -5.921875 C 1.390625 -5.921875 0.515625 -5.234375 0.515625 -4.171875 C 0.515625 -3.265625 0.984375 -2.84375 2.34375 -2.515625 L 3.203125 -2.296875 C 3.84375 -2.140625 4.09375 -1.90625 4.09375 -1.5 C 4.09375 -0.953125 3.546875 -0.59375 2.75 -0.59375 C 2.25 -0.59375 1.84375 -0.734375 1.609375 -0.984375 C 1.46875 -1.140625 1.390625 -1.3125 1.34375 -1.71875 L 0.375 -1.71875 C 0.421875 -0.390625 1.171875 0.25 2.671875 0.25 C 4.125 0.25 5.046875 -0.46875 5.046875 -1.578125 C 5.046875 -2.4375 4.5625 -2.90625 3.421875 -3.171875 L 2.546875 -3.390625 C 1.796875 -3.5625 1.46875 -3.8125 1.46875 -4.21875 C 1.46875 -4.75 1.953125 -5.078125 2.6875 -5.078125 C 3.4375 -5.078125 3.828125 -4.765625 3.84375 -4.15625 Z M 4.8125 -4.15625 "/>
</g>
<g id="glyph-4-9">
<path d="M 0.59375 2.390625 L 1.515625 2.390625 L 1.515625 -0.609375 C 2 -0.015625 2.546875 0.25 3.28125 0.25 C 4.78125 0.25 5.75 -0.953125 5.75 -2.78125 C 5.75 -4.71875 4.8125 -5.921875 3.28125 -5.921875 C 2.5 -5.921875 1.875 -5.578125 1.4375 -4.890625 L 1.4375 -5.765625 L 0.59375 -5.765625 Z M 3.125 -5.078125 C 4.140625 -5.078125 4.796875 -4.1875 4.796875 -2.8125 C 4.796875 -1.5 4.125 -0.609375 3.125 -0.609375 C 2.140625 -0.609375 1.515625 -1.484375 1.515625 -2.84375 C 1.515625 -4.1875 2.140625 -5.078125 3.125 -5.078125 Z M 3.125 -5.078125 "/>
</g>
<g id="glyph-4-10">
<path d="M 5.4375 -8.015625 L 4.53125 -8.015625 L 4.53125 -5.03125 C 4.140625 -5.625 3.53125 -5.921875 2.765625 -5.921875 C 1.265625 -5.921875 0.28125 -4.734375 0.28125 -2.890625 C 0.28125 -0.953125 1.234375 0.25 2.796875 0.25 C 3.59375 0.25 4.140625 -0.046875 4.625 -0.765625 L 4.625 0 L 5.4375 0 Z M 2.921875 -5.078125 C 3.90625 -5.078125 4.53125 -4.203125 4.53125 -2.8125 C 4.53125 -1.484375 3.890625 -0.609375 2.921875 -0.609375 C 1.90625 -0.609375 1.25 -1.5 1.25 -2.84375 C 1.25 -4.1875 1.90625 -5.078125 2.921875 -5.078125 Z M 2.921875 -5.078125 "/>
</g>
<g id="glyph-4-11">
<path d="M 5.296875 0 L 5.296875 -5.765625 L 4.390625 -5.765625 L 4.390625 -2.5 C 4.390625 -1.3125 3.765625 -0.546875 2.8125 -0.546875 C 2.09375 -0.546875 1.625 -0.984375 1.625 -1.6875 L 1.625 -5.765625 L 0.71875 -5.765625 L 0.71875 -1.3125 C 0.71875 -0.359375 1.4375 0.25 2.546875 0.25 C 3.40625 0.25 3.9375 -0.046875 4.484375 -0.796875 L 4.484375 0 Z M 5.296875 0 "/>
</g>
<g id="glyph-4-12">
<path d="M 0.765625 -5.765625 L 0.765625 0 L 1.6875 0 L 1.6875 -3.171875 C 1.6875 -4.359375 2.3125 -5.125 3.25 -5.125 C 3.984375 -5.125 4.4375 -4.6875 4.4375 -4 L 4.4375 0 L 5.359375 0 L 5.359375 -4.359375 C 5.359375 -5.3125 4.640625 -5.921875 3.53125 -5.921875 C 2.671875 -5.921875 2.125 -5.59375 1.609375 -4.796875 L 1.609375 -5.765625 Z M 0.765625 -5.765625 "/>
</g>
<g id="glyph-4-13">
<path d="M 1.671875 -8.015625 L 0.75 -8.015625 L 0.75 0 L 1.671875 0 Z M 1.671875 -8.015625 "/>
</g>
<g id="glyph-4-14">
<path d="M 0.765625 -5.765625 L 0.765625 0 L 1.6875 0 L 1.6875 -3.625 C 1.6875 -4.453125 2.296875 -5.125 3.046875 -5.125 C 3.734375 -5.125 4.109375 -4.703125 4.109375 -3.96875 L 4.109375 0 L 5.03125 0 L 5.03125 -3.625 C 5.03125 -4.453125 5.640625 -5.125 6.390625 -5.125 C 7.0625 -5.125 7.453125 -4.703125 7.453125 -3.96875 L 7.453125 0 L 8.375 0 L 8.375 -4.328125 C 8.375 -5.359375 7.78125 -5.921875 6.703125 -5.921875 C 5.9375 -5.921875 5.484375 -5.703125 4.9375 -5.046875 C 4.59375 -5.671875 4.140625 -5.921875 3.390625 -5.921875 C 2.625 -5.921875 2.09375 -5.640625 1.609375 -4.953125 L 1.609375 -5.765625 Z M 0.765625 -5.765625 "/>
</g>
<g id="glyph-4-15">
<path d="M 5.890625 -0.53125 C 5.78125 -0.515625 5.734375 -0.515625 5.6875 -0.515625 C 5.375 -0.515625 5.1875 -0.6875 5.1875 -0.96875 L 5.1875 -4.359375 C 5.1875 -5.375 4.4375 -5.921875 3.03125 -5.921875 C 2.171875 -5.921875 1.5 -5.6875 1.109375 -5.265625 C 0.84375 -4.96875 0.734375 -4.625 0.71875 -4.0625 L 1.640625 -4.0625 C 1.71875 -4.765625 2.140625 -5.078125 2.984375 -5.078125 C 3.828125 -5.078125 4.28125 -4.78125 4.28125 -4.21875 L 4.28125 -3.984375 C 4.265625 -3.59375 4.0625 -3.4375 3.328125 -3.34375 C 2.03125 -3.171875 1.828125 -3.140625 1.46875 -2.984375 C 0.796875 -2.703125 0.46875 -2.203125 0.46875 -1.453125 C 0.46875 -0.40625 1.1875 0.25 2.359375 0.25 C 3.078125 0.25 3.65625 0 4.3125 -0.59375 C 4.375 0 4.65625 0.25 5.265625 0.25 C 5.453125 0.25 5.578125 0.234375 5.890625 0.15625 Z M 4.28125 -1.8125 C 4.28125 -1.5 4.1875 -1.3125 3.921875 -1.0625 C 3.546875 -0.71875 3.09375 -0.546875 2.546875 -0.546875 C 1.84375 -0.546875 1.421875 -0.890625 1.421875 -1.46875 C 1.421875 -2.078125 1.8125 -2.390625 2.8125 -2.53125 C 3.78125 -2.65625 3.96875 -2.703125 4.28125 -2.84375 Z M 4.28125 -1.8125 "/>
</g>
<g id="glyph-4-16">
<path d="M 0.765625 -5.765625 L 0.765625 0 L 1.6875 0 L 1.6875 -2.984375 C 1.6875 -4.375 2.265625 -5 3.53125 -4.96875 L 3.53125 -5.890625 C 3.375 -5.921875 3.28125 -5.921875 3.171875 -5.921875 C 2.578125 -5.921875 2.140625 -5.578125 1.609375 -4.71875 L 1.609375 -5.765625 Z M 0.765625 -5.765625 "/>
</g>
<g id="glyph-4-17">
<path d="M 0.765625 -8.015625 L 0.765625 0 L 1.6875 0 L 1.6875 -3.171875 C 1.6875 -4.359375 2.296875 -5.125 3.25 -5.125 C 3.546875 -5.125 3.84375 -5.03125 4.0625 -4.875 C 4.328125 -4.671875 4.4375 -4.40625 4.4375 -4 L 4.4375 0 L 5.34375 0 L 5.34375 -4.359375 C 5.34375 -5.328125 4.65625 -5.921875 3.53125 -5.921875 C 2.71875 -5.921875 2.21875 -5.671875 1.6875 -4.96875 L 1.6875 -8.015625 Z M 0.765625 -8.015625 "/>
</g>
<g id="glyph-4-18">
<path d="M 3.125 -3.4375 L 0.5 -3.4375 L 0.5 -2.640625 L 3.125 -2.640625 Z M 3.125 -3.4375 "/>
</g>
<g id="glyph-4-19">
<path d="M 4.4375 -5.765625 L 4.4375 -4.921875 C 3.984375 -5.625 3.46875 -5.921875 2.75 -5.921875 C 1.359375 -5.921875 0.390625 -4.625 0.390625 -2.78125 C 0.390625 -1.8125 0.609375 -1.109375 1.109375 -0.53125 C 1.546875 -0.015625 2.09375 0.25 2.6875 0.25 C 3.375 0.25 3.875 -0.0625 4.359375 -0.78125 L 4.359375 -0.484375 C 4.359375 1.0625 3.921875 1.625 2.78125 1.625 C 2 1.625 1.59375 1.3125 1.5 0.65625 L 0.578125 0.65625 C 0.65625 1.734375 1.5 2.390625 2.765625 2.390625 C 3.609375 2.390625 4.3125 2.125 4.6875 1.65625 C 5.125 1.125 5.296875 0.40625 5.296875 -0.953125 L 5.296875 -5.765625 Z M 2.84375 -5.078125 C 3.8125 -5.078125 4.359375 -4.265625 4.359375 -2.8125 C 4.359375 -1.40625 3.796875 -0.59375 2.84375 -0.59375 C 1.890625 -0.59375 1.34375 -1.421875 1.34375 -2.84375 C 1.34375 -4.25 1.890625 -5.078125 2.84375 -5.078125 Z M 2.84375 -5.078125 "/>
</g>
<g id="glyph-4-20">
<path d="M 2.984375 -5.921875 C 1.359375 -5.921875 0.390625 -4.78125 0.390625 -2.84375 C 0.390625 -0.890625 1.359375 0.25 3 0.25 C 4.625 0.25 5.609375 -0.90625 5.609375 -2.796875 C 5.609375 -4.796875 4.65625 -5.921875 2.984375 -5.921875 Z M 3 -5.078125 C 4.03125 -5.078125 4.65625 -4.234375 4.65625 -2.8125 C 4.65625 -1.4375 4.015625 -0.59375 3 -0.59375 C 1.984375 -0.59375 1.359375 -1.4375 1.359375 -2.84375 C 1.359375 -4.234375 1.984375 -5.078125 3 -5.078125 Z M 3 -5.078125 "/>
</g>
<g id="glyph-5-0">
<path d="M 6.609375 -1.9375 L 7.25 0 L 9.28125 0 L 5.953125 -9.625 L 3.765625 -9.625 L 0.34375 0 L 2.359375 0 L 3.015625 -1.9375 Z M 6.078125 -3.59375 L 3.5625 -3.59375 L 4.8125 -7.359375 Z M 6.078125 -3.59375 "/>
</g>
<g id="glyph-5-1">
</g>
<g id="glyph-5-2">
<path d="M 6.890625 -4.46875 C 6.765625 -6.203125 5.609375 -7.25 3.8125 -7.25 C 1.671875 -7.25 0.453125 -5.84375 0.453125 -3.421875 C 0.453125 -1.0625 1.671875 0.296875 3.796875 0.296875 C 5.515625 0.296875 6.71875 -0.765625 6.890625 -2.46875 L 5.125 -2.46875 C 4.890625 -1.546875 4.53125 -1.1875 3.796875 -1.1875 C 2.859375 -1.1875 2.296875 -2.015625 2.296875 -3.421875 C 2.296875 -4.109375 2.421875 -4.734375 2.65625 -5.15625 C 2.859375 -5.546875 3.28125 -5.75 3.796875 -5.75 C 4.5625 -5.75 4.90625 -5.40625 5.125 -4.46875 Z M 6.890625 -4.46875 "/>
</g>
<g id="glyph-5-3">
<path d="M 7.140625 0 L 7.140625 -7.125 L 5.296875 -7.125 L 5.296875 -2.671875 C 5.296875 -1.828125 4.71875 -1.265625 3.796875 -1.265625 C 3.015625 -1.265625 2.609375 -1.6875 2.609375 -2.546875 L 2.609375 -7.125 L 0.765625 -7.125 L 0.765625 -2.171875 C 0.765625 -0.578125 1.625 0.296875 3.15625 0.296875 C 4.125 0.296875 4.765625 -0.046875 5.296875 -0.84375 L 5.296875 0 Z M 7.140625 0 "/>
</g>
<g id="glyph-5-4">
<path d="M 6.671875 -4.828125 C 6.640625 -6.34375 5.484375 -7.25 3.5625 -7.25 C 1.75 -7.25 0.640625 -6.34375 0.640625 -4.875 C 0.640625 -4.390625 0.78125 -3.984375 1.03125 -3.703125 C 1.28125 -3.453125 1.5 -3.34375 2.1875 -3.109375 L 4.390625 -2.421875 C 4.859375 -2.28125 5.015625 -2.140625 5.015625 -1.84375 C 5.015625 -1.40625 4.5 -1.15625 3.640625 -1.15625 C 3.15625 -1.15625 2.78125 -1.234375 2.546875 -1.40625 C 2.34375 -1.546875 2.265625 -1.6875 2.1875 -2.078125 L 0.390625 -2.078125 C 0.4375 -0.5 1.578125 0.296875 3.75 0.296875 C 4.734375 0.296875 5.5 0.09375 6.015625 -0.328125 C 6.546875 -0.75 6.859375 -1.40625 6.859375 -2.109375 C 6.859375 -3.03125 6.40625 -3.625 5.46875 -3.90625 L 3.125 -4.578125 C 2.609375 -4.734375 2.484375 -4.84375 2.484375 -5.140625 C 2.484375 -5.53125 2.90625 -5.796875 3.546875 -5.796875 C 4.4375 -5.796875 4.875 -5.484375 4.890625 -4.828125 Z M 6.671875 -4.828125 "/>
</g>
<g id="glyph-5-5">
<path d="M 3.96875 -6.984375 L 2.9375 -6.984375 L 2.9375 -8.90625 L 1.09375 -8.90625 L 1.09375 -6.984375 L 0.1875 -6.984375 L 0.1875 -5.75 L 1.09375 -5.75 L 1.09375 -1.375 C 1.09375 -0.25 1.6875 0.296875 2.90625 0.296875 C 3.328125 0.296875 3.625 0.265625 3.96875 0.15625 L 3.96875 -1.140625 C 3.796875 -1.109375 3.703125 -1.09375 3.546875 -1.09375 C 3.0625 -1.09375 2.9375 -1.234375 2.9375 -1.875 L 2.9375 -5.75 L 3.96875 -5.75 Z M 3.96875 -6.984375 "/>
</g>
<g id="glyph-5-6">
<path d="M 3.96875 -7.25 C 1.796875 -7.25 0.46875 -5.8125 0.46875 -3.46875 C 0.46875 -1.125 1.796875 0.296875 3.984375 0.296875 C 6.171875 0.296875 7.515625 -1.125 7.515625 -3.421875 C 7.515625 -5.828125 6.203125 -7.25 3.96875 -7.25 Z M 3.984375 -5.75 C 5 -5.75 5.671875 -4.84375 5.671875 -3.453125 C 5.671875 -2.109375 4.984375 -1.1875 3.984375 -1.1875 C 2.984375 -1.1875 2.3125 -2.09375 2.3125 -3.46875 C 2.3125 -4.84375 2.984375 -5.75 3.984375 -5.75 Z M 3.984375 -5.75 "/>
</g>
<g id="glyph-5-7">
<path d="M 0.796875 -7.125 L 0.796875 0 L 2.640625 0 L 2.640625 -4.28125 C 2.640625 -5.15625 3.109375 -5.671875 3.90625 -5.671875 C 4.53125 -5.671875 4.90625 -5.328125 4.90625 -4.75 L 4.90625 0 L 6.765625 0 L 6.765625 -4.28125 C 6.765625 -5.15625 7.234375 -5.671875 8.03125 -5.671875 C 8.640625 -5.671875 9.03125 -5.328125 9.03125 -4.75 L 9.03125 0 L 10.875 0 L 10.875 -5.046875 C 10.875 -6.4375 10.03125 -7.25 8.609375 -7.25 C 7.703125 -7.25 7.078125 -6.9375 6.515625 -6.1875 C 6.171875 -6.859375 5.46875 -7.25 4.578125 -7.25 C 3.765625 -7.25 3.234375 -6.984375 2.625 -6.25 L 2.625 -7.125 Z M 0.796875 -7.125 "/>
</g>
<g id="glyph-5-8">
<path d="M 6.921875 -0.21875 C 6.609375 -0.53125 6.5 -0.734375 6.5 -1.09375 L 6.5 -5.0625 C 6.5 -6.515625 5.5 -7.25 3.578125 -7.25 C 1.65625 -7.25 0.640625 -6.4375 0.53125 -4.78125 L 2.3125 -4.78125 C 2.40625 -5.515625 2.703125 -5.75 3.625 -5.75 C 4.328125 -5.75 4.6875 -5.515625 4.6875 -5.046875 C 4.6875 -4.8125 4.5625 -4.609375 4.375 -4.484375 C 4.125 -4.359375 4.125 -4.359375 3.203125 -4.21875 L 2.46875 -4.078125 C 1.0625 -3.84375 0.375 -3.109375 0.375 -1.828125 C 0.375 -0.546875 1.234375 0.296875 2.53125 0.296875 C 3.328125 0.296875 4.046875 -0.03125 4.703125 -0.71875 C 4.703125 -0.34375 4.734375 -0.21875 4.90625 0 L 6.921875 0 Z M 4.6875 -2.859375 C 4.6875 -1.796875 4.15625 -1.1875 3.21875 -1.1875 C 2.59375 -1.1875 2.21875 -1.515625 2.21875 -2.046875 C 2.21875 -2.59375 2.515625 -2.859375 3.28125 -3.03125 L 3.90625 -3.140625 C 4.390625 -3.234375 4.46875 -3.265625 4.6875 -3.359375 Z M 4.6875 -2.859375 "/>
</g>
<g id="glyph-5-9">
<path d="M 0.890625 -9.625 L 0.890625 0 L 2.734375 0 L 2.734375 -4.28125 C 2.734375 -5.09375 3.328125 -5.671875 4.15625 -5.671875 C 4.5625 -5.671875 4.875 -5.53125 5.078125 -5.234375 C 5.25 -5 5.296875 -4.8125 5.296875 -4.359375 L 5.296875 0 L 7.140625 0 L 7.140625 -4.78125 C 7.140625 -5.671875 6.90625 -6.296875 6.421875 -6.703125 C 6 -7.046875 5.40625 -7.25 4.8125 -7.25 C 3.90625 -7.25 3.25 -6.890625 2.734375 -6.09375 L 2.734375 -9.625 Z M 0.890625 -9.625 "/>
</g>
<g id="glyph-5-10">
<path d="M 6.921875 -2.984375 C 6.9375 -3.140625 6.9375 -3.203125 6.9375 -3.296875 C 6.9375 -4.015625 6.828125 -4.671875 6.65625 -5.171875 C 6.171875 -6.46875 5.03125 -7.25 3.59375 -7.25 C 1.546875 -7.25 0.296875 -5.765625 0.296875 -3.375 C 0.296875 -1.09375 1.53125 0.296875 3.546875 0.296875 C 5.15625 0.296875 6.4375 -0.59375 6.859375 -2 L 5.03125 -2 C 4.8125 -1.4375 4.296875 -1.109375 3.625 -1.109375 C 3.09375 -1.109375 2.671875 -1.328125 2.40625 -1.734375 C 2.234375 -2 2.171875 -2.3125 2.140625 -2.984375 Z M 2.171875 -4.21875 C 2.28125 -5.3125 2.75 -5.828125 3.5625 -5.828125 C 4.40625 -5.828125 4.90625 -5.265625 5 -4.21875 Z M 2.171875 -4.21875 "/>
</g>
<g id="glyph-5-11">
<path d="M 0.828125 -7.125 L 0.828125 0 L 2.6875 0 L 2.6875 -3.796875 C 2.6875 -4.875 3.21875 -5.40625 4.296875 -5.40625 C 4.5 -5.40625 4.640625 -5.40625 4.890625 -5.359375 L 4.890625 -7.234375 C 4.78125 -7.25 4.734375 -7.25 4.65625 -7.25 C 3.8125 -7.25 3.09375 -6.6875 2.6875 -5.734375 L 2.6875 -7.125 Z M 0.828125 -7.125 "/>
</g>
<g id="glyph-5-12">
<path d="M 2.609375 -7.125 L 0.765625 -7.125 L 0.765625 2.875 L 2.609375 2.875 L 2.609375 -0.84375 C 3.0625 -0.046875 3.703125 0.3125 4.59375 0.3125 C 6.3125 0.3125 7.578125 -1.296875 7.578125 -3.453125 C 7.578125 -4.46875 7.28125 -5.46875 6.8125 -6.125 C 6.34375 -6.796875 5.453125 -7.25 4.59375 -7.25 C 3.703125 -7.25 3.0625 -6.859375 2.609375 -6.078125 Z M 4.171875 -5.703125 C 5.109375 -5.703125 5.734375 -4.8125 5.734375 -3.4375 C 5.734375 -2.125 5.09375 -1.234375 4.171875 -1.234375 C 3.234375 -1.234375 2.609375 -2.125 2.609375 -3.453125 C 2.609375 -4.8125 3.234375 -5.703125 4.171875 -5.703125 Z M 4.171875 -5.703125 "/>
</g>
<g id="glyph-5-13">
<path d="M 5.203125 -7.125 L 3.71875 -1.9375 L 2.15625 -7.125 L 0.125 -7.125 L 2.765625 0.296875 C 2.765625 1.03125 2.3125 1.53125 1.625 1.53125 C 1.484375 1.53125 1.359375 1.5 1.140625 1.453125 L 1.140625 2.84375 C 1.40625 2.875 1.578125 2.890625 1.796875 2.890625 C 2.265625 2.890625 2.796875 2.796875 3.125 2.671875 C 3.640625 2.453125 3.875 2.171875 4.171875 1.3125 L 7.109375 -7.125 Z M 5.203125 -7.125 "/>
</g>
<g id="glyph-5-14">
<path d="M 2.734375 -7.125 L 0.890625 -7.125 L 0.890625 0 L 2.734375 0 Z M 2.734375 -9.625 L 0.890625 -9.625 L 0.890625 -7.96875 L 2.734375 -7.96875 Z M 2.734375 -9.625 "/>
</g>
<g id="glyph-5-15">
<path d="M 0.828125 -7.125 L 0.828125 0 L 2.6875 0 L 2.6875 -4.28125 C 2.6875 -5.125 3.265625 -5.671875 4.171875 -5.671875 C 4.96875 -5.671875 5.359375 -5.234375 5.359375 -4.390625 L 5.359375 0 L 7.203125 0 L 7.203125 -4.78125 C 7.203125 -6.359375 6.34375 -7.25 4.8125 -7.25 C 3.859375 -7.25 3.203125 -6.90625 2.6875 -6.09375 L 2.6875 -7.125 Z M 0.828125 -7.125 "/>
</g>
<g id="glyph-5-16">
<path d="M 3.9375 -4.515625 L 0.34375 -4.515625 L 0.34375 -2.734375 L 3.9375 -2.734375 Z M 3.9375 -4.515625 "/>
</g>
<g id="glyph-5-17">
<path d="M 0.78125 -9.625 L 0.78125 0 L 2.625 0 L 2.625 -0.71875 C 3.078125 -0.03125 3.703125 0.296875 4.59375 0.296875 C 6.296875 0.296875 7.59375 -1.328125 7.59375 -3.46875 C 7.59375 -4.4375 7.296875 -5.40625 6.828125 -6.09375 C 6.34375 -6.796875 5.46875 -7.25 4.59375 -7.25 C 3.703125 -7.25 3.078125 -6.921875 2.625 -6.203125 L 2.625 -9.625 Z M 4.1875 -5.703125 C 5.09375 -5.703125 5.75 -4.78125 5.75 -3.453125 C 5.75 -2.15625 5.109375 -1.234375 4.1875 -1.234375 C 3.25 -1.234375 2.625 -2.125 2.625 -3.5 C 2.625 -4.8125 3.265625 -5.703125 4.1875 -5.703125 Z M 4.1875 -5.703125 "/>
</g>
<g id="glyph-5-18">
<path d="M 2.734375 -9.625 L 0.890625 -9.625 L 0.890625 0 L 2.734375 0 Z M 2.734375 -9.625 "/>
</g>
<g id="glyph-5-19">
<path d="M 5.34375 0 L 7.203125 0 L 7.203125 -9.625 L 5.34375 -9.625 L 5.34375 -6.203125 C 4.890625 -6.921875 4.28125 -7.25 3.375 -7.25 C 1.671875 -7.25 0.390625 -5.609375 0.390625 -3.453125 C 0.390625 -2.5 0.671875 -1.515625 1.15625 -0.828125 C 1.640625 -0.125 2.515625 0.296875 3.375 0.296875 C 4.28125 0.296875 4.890625 -0.015625 5.34375 -0.71875 Z M 3.796875 -5.703125 C 4.734375 -5.703125 5.34375 -4.8125 5.34375 -3.4375 C 5.34375 -2.140625 4.71875 -1.234375 3.796875 -1.234375 C 2.859375 -1.234375 2.234375 -2.15625 2.234375 -3.453125 C 2.234375 -4.796875 2.859375 -5.703125 3.796875 -5.703125 Z M 3.796875 -5.703125 "/>
</g>
</g>
<clipPath id="clip-0">
<path clip-rule="nonzero" d="M 50.617188 266 L 380.441406 266 L 380.441406 268 L 50.617188 268 Z M 50.617188 266 "/>
</clipPath>
<clipPath id="clip-1">
<path clip-rule="nonzero" d="M 50.617188 219 L 380.441406 219 L 380.441406 221 L 50.617188 221 Z M 50.617188 219 "/>
</clipPath>
<clipPath id="clip-2">
<path clip-rule="nonzero" d="M 50.617188 172 L 380.441406 172 L 380.441406 174 L 50.617188 174 Z M 50.617188 172 "/>
</clipPath>
<clipPath id="clip-3">
<path clip-rule="nonzero" d="M 50.617188 125 L 380.441406 125 L 380.441406 127 L 50.617188 127 Z M 50.617188 125 "/>
</clipPath>
<clipPath id="clip-4">
<path clip-rule="nonzero" d="M 50.617188 78 L 380.441406 78 L 380.441406 80 L 50.617188 80 Z M 50.617188 78 "/>
</clipPath>
<clipPath id="clip-5">
<path clip-rule="nonzero" d="M 50.617188 266 L 380.441406 266 L 380.441406 268 L 50.617188 268 Z M 50.617188 266 "/>
</clipPath>
<clipPath id="clip-6">
<path clip-rule="nonzero" d="M 385.921875 266 L 715.746094 266 L 715.746094 268 L 385.921875 268 Z M 385.921875 266 "/>
</clipPath>
<clipPath id="clip-7">
<path clip-rule="nonzero" d="M 385.921875 219 L 715.746094 219 L 715.746094 221 L 385.921875 221 Z M 385.921875 219 "/>
</clipPath>
<clipPath id="clip-8">
<path clip-rule="nonzero" d="M 385.921875 172 L 715.746094 172 L 715.746094 174 L 385.921875 174 Z M 385.921875 172 "/>
</clipPath>
<clipPath id="clip-9">
<path clip-rule="nonzero" d="M 385.921875 125 L 715.746094 125 L 715.746094 127 L 385.921875 127 Z M 385.921875 125 "/>
</clipPath>
<clipPath id="clip-10">
<path clip-rule="nonzero" d="M 385.921875 78 L 715.746094 78 L 715.746094 80 L 385.921875 80 Z M 385.921875 78 "/>
</clipPath>
<clipPath id="clip-11">
<path clip-rule="nonzero" d="M 385.921875 266 L 715.746094 266 L 715.746094 268 L 385.921875 268 Z M 385.921875 266 "/>
</clipPath>
<clipPath id="clip-12">
<path clip-rule="nonzero" d="M 721.226562 266 L 1051.050781 266 L 1051.050781 268 L 721.226562 268 Z M 721.226562 266 "/>
</clipPath>
<clipPath id="clip-13">
<path clip-rule="nonzero" d="M 721.226562 219 L 1051.050781 219 L 1051.050781 221 L 721.226562 221 Z M 721.226562 219 "/>
</clipPath>
<clipPath id="clip-14">
<path clip-rule="nonzero" d="M 721.226562 172 L 1051.050781 172 L 1051.050781 174 L 721.226562 174 Z M 721.226562 172 "/>
</clipPath>
<clipPath id="clip-15">
<path clip-rule="nonzero" d="M 721.226562 125 L 1051.050781 125 L 1051.050781 127 L 721.226562 127 Z M 721.226562 125 "/>
</clipPath>
<clipPath id="clip-16">
<path clip-rule="nonzero" d="M 721.226562 78 L 1051.050781 78 L 1051.050781 80 L 721.226562 80 Z M 721.226562 78 "/>
</clipPath>
<clipPath id="clip-17">
<path clip-rule="nonzero" d="M 721.226562 266 L 1051.050781 266 L 1051.050781 268 L 721.226562 268 Z M 721.226562 266 "/>
</clipPath>
</defs>
<rect x="-106.5" y="-33.8" width="1278" height="405.6" fill="rgb(100%, 100%, 100%)" fill-opacity="1"/>
<rect x="-106.5" y="-33.8" width="1278" height="405.6" fill="rgb(100%, 100%, 100%)" fill-opacity="1"/>
<g clip-path="url(#clip-0)">
<path fill="none" stroke-width="1.066978" stroke-linecap="butt" stroke-linejoin="round" stroke="rgb(92.156863%, 92.156863%, 92.156863%)" stroke-opacity="1" stroke-miterlimit="10" d="M 50.617188 267.113281 L 380.445312 267.113281 "/>
</g>
<g clip-path="url(#clip-1)">
<path fill="none" stroke-width="1.066978" stroke-linecap="butt" stroke-linejoin="round" stroke="rgb(92.156863%, 92.156863%, 92.156863%)" stroke-opacity="1" stroke-miterlimit="10" d="M 50.617188 220.09375 L 380.445312 220.09375 "/>
</g>
<g clip-path="url(#clip-2)">
<path fill="none" stroke-width="1.066978" stroke-linecap="butt" stroke-linejoin="round" stroke="rgb(92.156863%, 92.156863%, 92.156863%)" stroke-opacity="1" stroke-miterlimit="10" d="M 50.617188 173.074219 L 380.445312 173.074219 "/>
</g>
<g clip-path="url(#clip-3)">
<path fill="none" stroke-width="1.066978" stroke-linecap="butt" stroke-linejoin="round" stroke="rgb(92.156863%, 92.156863%, 92.156863%)" stroke-opacity="1" stroke-miterlimit="10" d="M 50.617188 126.054688 L 380.445312 126.054688 "/>
</g>
<g clip-path="url(#clip-4)">
<path fill="none" stroke-width="1.066978" stroke-linecap="butt" stroke-linejoin="round" stroke="rgb(92.156863%, 92.156863%, 92.156863%)" stroke-opacity="1" stroke-miterlimit="10" d="M 50.617188 79.035156 L 380.445312 79.035156 "/>
</g>
<g clip-path="url(#clip-5)">
<path fill="none" stroke-width="1.280374" stroke-linecap="butt" stroke-linejoin="round" stroke="rgb(78.823529%, 29.803922%, 29.803922%)" stroke-opacity="1" stroke-dasharray="5.121496 5.121496" stroke-miterlimit="10" d="M 50.617188 267.113281 L 380.445312 267.113281 "/>
</g>
<path fill="none" stroke-width="2.240655" stroke-linecap="butt" stroke-linejoin="round" stroke="rgb(15.686275%, 32.54902%, 41.960784%)" stroke-opacity="1" stroke-miterlimit="10" d="M 65.609375 285.222656 L 95.699219 262.628906 L 113.296875 244.484375 L 125.785156 229.589844 L 135.472656 217.148438 L 143.386719 206.597656 L 150.074219 197.539062 L 155.871094 189.675781 L 160.984375 182.785156 L 165.558594 176.695312 L 169.695312 171.277344 L 173.472656 166.425781 L 176.945312 162.058594 L 180.164062 158.101562 L 183.15625 154.5 L 185.960938 151.210938 L 188.589844 148.195312 L 191.070312 145.417969 L 193.417969 142.855469 L 195.644531 140.476562 L 197.761719 138.269531 L 199.78125 136.214844 L 201.710938 134.296875 L 203.558594 132.5 L 205.332031 130.816406 L 207.03125 129.234375 L 208.671875 127.742188 L 210.25 126.339844 L 211.773438 125.011719 L 213.246094 123.753906 L 214.667969 122.566406 L 216.046875 121.433594 L 218.675781 119.339844 L 219.9375 118.367188 L 221.160156 117.441406 L 223.503906 115.710938 L 224.632812 114.898438 L 226.804688 113.382812 L 227.851562 112.667969 L 229.867188 111.328125 L 231.796875 110.085938 L 232.730469 109.5 L 234.539062 108.390625 L 236.277344 107.355469 L 237.945312 106.390625 L 239.554688 105.488281 L 241.859375 104.238281 L 243.332031 103.46875 L 244.753906 102.742188 L 246.804688 101.726562 L 248.121094 101.097656 L 250.023438 100.210938 L 251.246094 99.660156 L 253.015625 98.878906 L 254.71875 98.15625 L 256.359375 97.480469 L 258.449219 96.652344 L 259.957031 96.074219 L 261.410156 95.53125 L 263.277344 94.859375 L 265.070312 94.238281 L 266.789062 93.660156 L 268.441406 93.121094 L 270.035156 92.621094 L 271.570312 92.15625 L 273.417969 91.613281 L 274.84375 91.207031 L 276.558594 90.734375 L 278.207031 90.296875 L 280.109375 89.808594 L 281.632812 89.429688 L 283.394531 89.011719 L 285.085938 88.621094 L 286.710938 88.257812 L 288.28125 87.921875 L 290.042969 87.554688 L 291.734375 87.214844 L 293.367188 86.898438 L 295.15625 86.566406 L 296.875 86.257812 L 298.527344 85.972656 L 300.121094 85.703125 L 301.847656 85.425781 L 303.503906 85.167969 L 305.105469 84.929688 L 306.8125 84.679688 L 308.457031 84.453125 L 310.195312 84.21875 L 311.871094 84 L 313.480469 83.800781 L 315.171875 83.59375 L 316.933594 83.390625 L 318.496094 83.214844 L 320.253906 83.027344 L 321.941406 82.851562 L 323.566406 82.6875 L 325.242188 82.527344 L 326.960938 82.367188 L 328.617188 82.21875 L 330.304688 82.074219 L 331.933594 81.9375 L 333.59375 81.804688 L 335.277344 81.675781 L 336.984375 81.546875 L 338.625 81.429688 L 340.359375 81.3125 L 342.03125 81.199219 L 343.710938 81.09375 L 345.328125 80.992188 L 348.710938 80.796875 L 350.402344 80.703125 L 352.027344 80.617188 L 353.710938 80.53125 L 355.382812 80.449219 L 357.101562 80.367188 L 358.753906 80.292969 L 360.441406 80.21875 L 362.113281 80.148438 L 363.769531 80.082031 L 365.453125 80.015625 "/>
<g clip-path="url(#clip-6)">
<path fill="none" stroke-width="1.066978" stroke-linecap="butt" stroke-linejoin="round" stroke="rgb(92.156863%, 92.156863%, 92.156863%)" stroke-opacity="1" stroke-miterlimit="10" d="M 385.921875 267.113281 L 715.746094 267.113281 "/>
</g>
<g clip-path="url(#clip-7)">
<path fill="none" stroke-width="1.066978" stroke-linecap="butt" stroke-linejoin="round" stroke="rgb(92.156863%, 92.156863%, 92.156863%)" stroke-opacity="1" stroke-miterlimit="10" d="M 385.921875 220.09375 L 715.746094 220.09375 "/>
</g>
<g clip-path="url(#clip-8)">
<path fill="none" stroke-width="1.066978" stroke-linecap="butt" stroke-linejoin="round" stroke="rgb(92.156863%, 92.156863%, 92.156863%)" stroke-opacity="1" stroke-miterlimit="10" d="M 385.921875 173.074219 L 715.746094 173.074219 "/>
</g>
<g clip-path="url(#clip-9)">
<path fill="none" stroke-width="1.066978" stroke-linecap="butt" stroke-linejoin="round" stroke="rgb(92.156863%, 92.156863%, 92.156863%)" stroke-opacity="1" stroke-miterlimit="10" d="M 385.921875 126.054688 L 715.746094 126.054688 "/>
</g>
<g clip-path="url(#clip-10)">
<path fill="none" stroke-width="1.066978" stroke-linecap="butt" stroke-linejoin="round" stroke="rgb(92.156863%, 92.156863%, 92.156863%)" stroke-opacity="1" stroke-miterlimit="10" d="M 385.921875 79.035156 L 715.746094 79.035156 "/>
</g>
<g clip-path="url(#clip-11)">
<path fill="none" stroke-width="1.280374" stroke-linecap="butt" stroke-linejoin="round" stroke="rgb(78.823529%, 29.803922%, 29.803922%)" stroke-opacity="1" stroke-dasharray="5.121496 5.121496" stroke-miterlimit="10" d="M 385.921875 267.113281 L 715.746094 267.113281 "/>
</g>
<path fill="none" stroke-width="2.240655" stroke-linecap="butt" stroke-linejoin="round" stroke="rgb(26.27451%, 62.745098%, 27.843137%)" stroke-opacity="1" stroke-miterlimit="10" d="M 400.914062 287.023438 L 431.003906 265.992188 L 448.601562 249.199219 L 461.089844 235.480469 L 470.773438 224.066406 L 478.6875 214.417969 L 485.378906 206.152344 L 491.175781 198.996094 L 496.289062 192.738281 L 500.863281 187.222656 L 505 182.320312 L 508.777344 177.9375 L 512.25 173.992188 L 515.46875 170.425781 L 518.460938 167.183594 L 521.261719 164.226562 L 523.894531 161.515625 L 526.375 159.023438 L 528.722656 156.71875 L 530.949219 154.589844 L 533.066406 152.613281 L 535.085938 150.773438 L 537.015625 149.054688 L 538.863281 147.445312 L 540.636719 145.941406 L 542.335938 144.527344 L 543.976562 143.195312 L 545.554688 141.941406 L 547.078125 140.753906 L 548.550781 139.632812 L 549.972656 138.574219 L 551.351562 137.566406 L 553.980469 135.699219 L 555.238281 134.832031 L 556.460938 134.003906 L 558.808594 132.464844 L 559.9375 131.742188 L 562.109375 130.390625 L 563.152344 129.757812 L 565.171875 128.5625 L 567.101562 127.460938 L 568.035156 126.941406 L 569.84375 125.953125 L 571.582031 125.035156 L 573.25 124.179688 L 574.859375 123.378906 L 577.164062 122.269531 L 578.636719 121.582031 L 580.058594 120.9375 L 582.109375 120.039062 L 583.425781 119.480469 L 585.328125 118.695312 L 586.550781 118.207031 L 588.320312 117.515625 L 590.023438 116.875 L 591.664062 116.277344 L 593.753906 115.542969 L 595.261719 115.03125 L 596.714844 114.550781 L 598.582031 113.957031 L 600.371094 113.40625 L 602.09375 112.894531 L 603.746094 112.417969 L 605.339844 111.976562 L 606.875 111.5625 L 608.722656 111.082031 L 610.144531 110.722656 L 611.863281 110.304688 L 613.511719 109.917969 L 615.414062 109.488281 L 616.9375 109.15625 L 618.699219 108.78125 L 620.386719 108.4375 L 622.015625 108.117188 L 623.585938 107.820312 L 625.347656 107.496094 L 627.039062 107.195312 L 628.667969 106.917969 L 630.460938 106.625 L 632.179688 106.351562 L 633.832031 106.097656 L 635.425781 105.863281 L 637.152344 105.617188 L 638.808594 105.390625 L 640.40625 105.179688 L 642.117188 104.960938 L 643.761719 104.757812 L 645.5 104.550781 L 647.171875 104.359375 L 648.785156 104.179688 L 650.476562 104 L 652.238281 103.820312 L 653.800781 103.667969 L 655.558594 103.5 L 657.246094 103.34375 L 658.871094 103.199219 L 660.546875 103.058594 L 662.265625 102.917969 L 663.921875 102.785156 L 665.609375 102.660156 L 667.238281 102.539062 L 668.898438 102.421875 L 670.582031 102.308594 L 672.289062 102.195312 L 673.929688 102.09375 L 675.664062 101.988281 L 677.335938 101.890625 L 679.015625 101.792969 L 680.632812 101.707031 L 682.324219 101.617188 L 684.015625 101.53125 L 685.707031 101.449219 L 687.332031 101.375 L 689.015625 101.300781 L 690.6875 101.226562 L 692.40625 101.15625 L 694.058594 101.089844 L 695.746094 101.023438 L 697.417969 100.960938 L 699.074219 100.902344 L 700.757812 100.84375 "/>
<g clip-path="url(#clip-12)">
<path fill="none" stroke-width="1.066978" stroke-linecap="butt" stroke-linejoin="round" stroke="rgb(92.156863%, 92.156863%, 92.156863%)" stroke-opacity="1" stroke-miterlimit="10" d="M 721.226562 267.113281 L 1051.050781 267.113281 "/>
</g>
<g clip-path="url(#clip-13)">
<path fill="none" stroke-width="1.066978" stroke-linecap="butt" stroke-linejoin="round" stroke="rgb(92.156863%, 92.156863%, 92.156863%)" stroke-opacity="1" stroke-miterlimit="10" d="M 721.226562 220.09375 L 1051.050781 220.09375 "/>
</g>
<g clip-path="url(#clip-14)">
<path fill="none" stroke-width="1.066978" stroke-linecap="butt" stroke-linejoin="round" stroke="rgb(92.156863%, 92.156863%, 92.156863%)" stroke-opacity="1" stroke-miterlimit="10" d="M 721.226562 173.074219 L 1051.050781 173.074219 "/>
</g>
<g clip-path="url(#clip-15)">
<path fill="none" stroke-width="1.066978" stroke-linecap="butt" stroke-linejoin="round" stroke="rgb(92.156863%, 92.156863%, 92.156863%)" stroke-opacity="1" stroke-miterlimit="10" d="M 721.226562 126.054688 L 1051.050781 126.054688 "/>
</g>
<g clip-path="url(#clip-16)">
<path fill="none" stroke-width="1.066978" stroke-linecap="butt" stroke-linejoin="round" stroke="rgb(92.156863%, 92.156863%, 92.156863%)" stroke-opacity="1" stroke-miterlimit="10" d="M 721.226562 79.035156 L 1051.050781 79.035156 "/>
</g>
<g clip-path="url(#clip-17)">
<path fill="none" stroke-width="1.280374" stroke-linecap="butt" stroke-linejoin="round" stroke="rgb(78.823529%, 29.803922%, 29.803922%)" stroke-opacity="1" stroke-dasharray="5.121496 5.121496" stroke-miterlimit="10" d="M 721.226562 267.113281 L 1051.050781 267.113281 "/>
</g>
<path fill="none" stroke-width="2.240655" stroke-linecap="butt" stroke-linejoin="round" stroke="rgb(78.823529%, 29.803922%, 29.803922%)" stroke-opacity="1" stroke-miterlimit="10" d="M 736.21875 286.804688 L 766.304688 266.617188 L 783.90625 251.089844 L 796.394531 238.777344 L 806.078125 228.777344 L 813.992188 220.492188 L 820.683594 213.515625 L 826.480469 207.558594 L 831.59375 202.417969 L 836.167969 197.933594 L 840.304688 193.984375 L 844.082031 190.484375 L 847.554688 187.359375 L 850.769531 184.554688 L 853.765625 182.019531 L 856.566406 179.71875 L 859.199219 177.617188 L 861.679688 175.699219 L 864.027344 173.933594 L 866.253906 172.304688 L 868.371094 170.800781 L 870.390625 169.40625 L 872.320312 168.105469 L 874.167969 166.894531 L 875.9375 165.761719 L 877.640625 164.703125 L 879.28125 163.707031 L 880.859375 162.769531 L 882.382812 161.886719 L 883.851562 161.054688 L 885.277344 160.265625 L 886.65625 159.519531 L 889.285156 158.140625 L 890.542969 157.503906 L 891.765625 156.894531 L 894.113281 155.761719 L 895.242188 155.234375 L 897.414062 154.246094 L 898.457031 153.785156 L 900.476562 152.914062 L 902.40625 152.109375 L 903.339844 151.730469 L 905.148438 151.015625 L 906.886719 150.351562 L 908.554688 149.730469 L 910.164062 149.152344 L 912.46875 148.355469 L 913.941406 147.859375 L 915.363281 147.398438 L 917.414062 146.75 L 918.730469 146.351562 L 920.632812 145.789062 L 921.855469 145.4375 L 923.625 144.945312 L 925.328125 144.488281 L 926.964844 144.0625 L 929.058594 143.535156 L 930.566406 143.171875 L 932.019531 142.832031 L 933.886719 142.410156 L 935.675781 142.015625 L 937.394531 141.65625 L 939.050781 141.320312 L 940.644531 141.003906 L 942.179688 140.714844 L 944.027344 140.375 L 945.449219 140.121094 L 947.167969 139.824219 L 948.816406 139.550781 L 950.71875 139.25 L 952.242188 139.015625 L 954 138.753906 L 955.691406 138.507812 L 957.320312 138.285156 L 958.890625 138.074219 L 960.652344 137.847656 L 962.34375 137.636719 L 963.972656 137.441406 L 965.765625 137.234375 L 967.484375 137.042969 L 969.136719 136.867188 L 970.730469 136.703125 L 972.457031 136.53125 L 974.113281 136.371094 L 975.710938 136.222656 L 977.421875 136.070312 L 979.066406 135.929688 L 980.804688 135.785156 L 982.476562 135.652344 L 984.089844 135.527344 L 985.78125 135.402344 L 987.539062 135.273438 L 989.105469 135.167969 L 990.863281 135.050781 L 992.550781 134.941406 L 994.175781 134.84375 L 995.851562 134.742188 L 997.570312 134.644531 L 999.222656 134.554688 L 1000.914062 134.464844 L 1002.542969 134.382812 L 1004.203125 134.300781 L 1005.886719 134.21875 L 1007.59375 134.140625 L 1009.234375 134.070312 L 1010.96875 133.996094 L 1012.640625 133.929688 L 1014.320312 133.863281 L 1015.9375 133.800781 L 1017.628906 133.742188 L 1019.320312 133.679688 L 1021.011719 133.625 L 1022.636719 133.570312 L 1024.320312 133.519531 L 1025.992188 133.46875 L 1027.710938 133.417969 L 1029.363281 133.375 L 1031.050781 133.328125 L 1032.722656 133.285156 L 1034.378906 133.242188 L 1036.058594 133.203125 "/>
<g fill="rgb(10.196078%, 10.196078%, 10.196078%)" fill-opacity="1">
<use xlink:href="#glyph-0-0" x="183.03125" y="63.696289"/>
<use xlink:href="#glyph-0-1" x="189.03125" y="63.696289"/>
<use xlink:href="#glyph-0-2" x="195.03125" y="63.696289"/>
<use xlink:href="#glyph-0-1" x="202.03125" y="63.696289"/>
<use xlink:href="#glyph-0-3" x="208.03125" y="63.696289"/>
<use xlink:href="#glyph-0-4" x="210.03125" y="63.696289"/>
<use xlink:href="#glyph-0-3" x="212.03125" y="63.696289"/>
<use xlink:href="#glyph-0-2" x="214.03125" y="63.696289"/>
<use xlink:href="#glyph-0-5" x="221.03125" y="63.696289"/>
<use xlink:href="#glyph-0-6" x="227.03125" y="63.696289"/>
<use xlink:href="#glyph-0-7" x="233.03125" y="63.696289"/>
<use xlink:href="#glyph-0-8" x="238.03125" y="63.696289"/>
<use xlink:href="#glyph-0-9" x="243.03125" y="63.696289"/>
</g>
<g fill="rgb(10.196078%, 10.196078%, 10.196078%)" fill-opacity="1">
<use xlink:href="#glyph-0-10" x="518.335938" y="63.696289"/>
<use xlink:href="#glyph-0-2" x="524.335938" y="63.696289"/>
<use xlink:href="#glyph-0-11" x="531.335938" y="63.696289"/>
<use xlink:href="#glyph-0-1" x="537.335938" y="63.696289"/>
<use xlink:href="#glyph-0-3" x="543.335938" y="63.696289"/>
<use xlink:href="#glyph-0-4" x="545.335938" y="63.696289"/>
<use xlink:href="#glyph-0-3" x="547.335938" y="63.696289"/>
<use xlink:href="#glyph-0-2" x="549.335938" y="63.696289"/>
<use xlink:href="#glyph-0-5" x="556.335938" y="63.696289"/>
<use xlink:href="#glyph-0-6" x="562.335938" y="63.696289"/>
<use xlink:href="#glyph-0-7" x="568.335938" y="63.696289"/>
<use xlink:href="#glyph-0-8" x="573.335938" y="63.696289"/>
<use xlink:href="#glyph-0-9" x="578.335938" y="63.696289"/>
</g>
<g fill="rgb(10.196078%, 10.196078%, 10.196078%)" fill-opacity="1">
<use xlink:href="#glyph-0-1" x="856.640625" y="63.696289"/>
<use xlink:href="#glyph-0-2" x="862.640625" y="63.696289"/>
<use xlink:href="#glyph-0-1" x="869.640625" y="63.696289"/>
<use xlink:href="#glyph-0-3" x="875.640625" y="63.696289"/>
<use xlink:href="#glyph-0-4" x="877.640625" y="63.696289"/>
<use xlink:href="#glyph-0-3" x="879.640625" y="63.696289"/>
<use xlink:href="#glyph-0-2" x="881.640625" y="63.696289"/>
<use xlink:href="#glyph-0-5" x="888.640625" y="63.696289"/>
<use xlink:href="#glyph-0-6" x="894.640625" y="63.696289"/>
<use xlink:href="#glyph-0-7" x="900.640625" y="63.696289"/>
<use xlink:href="#glyph-0-8" x="905.640625" y="63.696289"/>
<use xlink:href="#glyph-0-12" x="910.640625" y="63.696289"/>
</g>
<g fill="rgb(30.196078%, 30.196078%, 30.196078%)" fill-opacity="1">
<use xlink:href="#glyph-1-0" x="63.109375" y="308.719727"/>
</g>
<g fill="rgb(30.196078%, 30.196078%, 30.196078%)" fill-opacity="1">
<use xlink:href="#glyph-1-1" x="93.199219" y="308.719727"/>
</g>
<g fill="rgb(30.196078%, 30.196078%, 30.196078%)" fill-opacity="1">
<use xlink:href="#glyph-1-2" x="132.972656" y="308.719727"/>
</g>
<g fill="rgb(30.196078%, 30.196078%, 30.196078%)" fill-opacity="1">
<use xlink:href="#glyph-1-0" x="160.558594" y="308.719727"/>
<use xlink:href="#glyph-1-3" x="165.558594" y="308.719727"/>
</g>
<g fill="rgb(30.196078%, 30.196078%, 30.196078%)" fill-opacity="1">
<use xlink:href="#glyph-1-0" x="258.003906" y="308.719727"/>
<use xlink:href="#glyph-1-3" x="263.003906" y="308.719727"/>
<use xlink:href="#glyph-1-3" x="268.003906" y="308.719727"/>
</g>
<g fill="rgb(30.196078%, 30.196078%, 30.196078%)" fill-opacity="1">
<use xlink:href="#glyph-1-0" x="354.453125" y="308.719727"/>
<use xlink:href="#glyph-1-4" x="359.453125" y="308.719727"/>
<use xlink:href="#glyph-1-3" x="361.453125" y="308.719727"/>
<use xlink:href="#glyph-1-3" x="366.453125" y="308.719727"/>
<use xlink:href="#glyph-1-3" x="371.453125" y="308.719727"/>
</g>
<g fill="rgb(30.196078%, 30.196078%, 30.196078%)" fill-opacity="1">
<use xlink:href="#glyph-1-0" x="398.414062" y="308.719727"/>
</g>
<g fill="rgb(30.196078%, 30.196078%, 30.196078%)" fill-opacity="1">
<use xlink:href="#glyph-1-1" x="428.503906" y="308.719727"/>
</g>
<g fill="rgb(30.196078%, 30.196078%, 30.196078%)" fill-opacity="1">
<use xlink:href="#glyph-1-2" x="468.273438" y="308.719727"/>
</g>
<g fill="rgb(30.196078%, 30.196078%, 30.196078%)" fill-opacity="1">
<use xlink:href="#glyph-1-0" x="495.863281" y="308.719727"/>
<use xlink:href="#glyph-1-3" x="500.863281" y="308.719727"/>
</g>
<g fill="rgb(30.196078%, 30.196078%, 30.196078%)" fill-opacity="1">
<use xlink:href="#glyph-1-0" x="593.308594" y="308.719727"/>
<use xlink:href="#glyph-1-3" x="598.308594" y="308.719727"/>
<use xlink:href="#glyph-1-3" x="603.308594" y="308.719727"/>
</g>
<g fill="rgb(30.196078%, 30.196078%, 30.196078%)" fill-opacity="1">
<use xlink:href="#glyph-1-0" x="689.757812" y="308.719727"/>
<use xlink:href="#glyph-1-4" x="694.757812" y="308.719727"/>
<use xlink:href="#glyph-1-3" x="696.757812" y="308.719727"/>
<use xlink:href="#glyph-1-3" x="701.757812" y="308.719727"/>
<use xlink:href="#glyph-1-3" x="706.757812" y="308.719727"/>
</g>
<g fill="rgb(30.196078%, 30.196078%, 30.196078%)" fill-opacity="1">
<use xlink:href="#glyph-1-0" x="733.71875" y="308.719727"/>
</g>
<g fill="rgb(30.196078%, 30.196078%, 30.196078%)" fill-opacity="1">
<use xlink:href="#glyph-1-1" x="763.804688" y="308.719727"/>
</g>
<g fill="rgb(30.196078%, 30.196078%, 30.196078%)" fill-opacity="1">
<use xlink:href="#glyph-1-2" x="803.578125" y="308.719727"/>
</g>
<g fill="rgb(30.196078%, 30.196078%, 30.196078%)" fill-opacity="1">
<use xlink:href="#glyph-1-0" x="831.167969" y="308.719727"/>
<use xlink:href="#glyph-1-3" x="836.167969" y="308.719727"/>
</g>
<g fill="rgb(30.196078%, 30.196078%, 30.196078%)" fill-opacity="1">
<use xlink:href="#glyph-1-0" x="928.613281" y="308.719727"/>
<use xlink:href="#glyph-1-3" x="933.613281" y="308.719727"/>
<use xlink:href="#glyph-1-3" x="938.613281" y="308.719727"/>
</g>
<g fill="rgb(30.196078%, 30.196078%, 30.196078%)" fill-opacity="1">
<use xlink:href="#glyph-1-0" x="1025.058594" y="308.719727"/>
<use xlink:href="#glyph-1-4" x="1030.058594" y="308.719727"/>
<use xlink:href="#glyph-1-3" x="1032.058594" y="308.719727"/>
<use xlink:href="#glyph-1-3" x="1037.058594" y="308.719727"/>
<use xlink:href="#glyph-1-3" x="1042.058594" y="308.719727"/>
</g>
<g fill="rgb(30.196078%, 30.196078%, 30.196078%)" fill-opacity="1">
<use xlink:href="#glyph-1-0" x="28.6875" y="270.02832"/>
<use xlink:href="#glyph-1-5" x="33.6875" y="270.02832"/>
<use xlink:href="#glyph-1-3" x="35.6875" y="270.02832"/>
<use xlink:href="#glyph-1-6" x="40.6875" y="270.02832"/>
</g>
<g fill="rgb(30.196078%, 30.196078%, 30.196078%)" fill-opacity="1">
<use xlink:href="#glyph-1-1" x="28.6875" y="223.008789"/>
<use xlink:href="#glyph-1-5" x="33.6875" y="223.008789"/>
<use xlink:href="#glyph-1-3" x="35.6875" y="223.008789"/>
<use xlink:href="#glyph-1-6" x="40.6875" y="223.008789"/>
</g>
<g fill="rgb(30.196078%, 30.196078%, 30.196078%)" fill-opacity="1">
<use xlink:href="#glyph-1-7" x="28.6875" y="175.989258"/>
<use xlink:href="#glyph-1-5" x="33.6875" y="175.989258"/>
<use xlink:href="#glyph-1-3" x="35.6875" y="175.989258"/>
<use xlink:href="#glyph-1-6" x="40.6875" y="175.989258"/>
</g>
<g fill="rgb(30.196078%, 30.196078%, 30.196078%)" fill-opacity="1">
<use xlink:href="#glyph-1-8" x="28.6875" y="128.969727"/>
<use xlink:href="#glyph-1-5" x="33.6875" y="128.969727"/>
<use xlink:href="#glyph-1-3" x="35.6875" y="128.969727"/>
<use xlink:href="#glyph-1-6" x="40.6875" y="128.969727"/>
</g>
<g fill="rgb(30.196078%, 30.196078%, 30.196078%)" fill-opacity="1">
<use xlink:href="#glyph-1-2" x="28.6875" y="81.950195"/>
<use xlink:href="#glyph-1-5" x="33.6875" y="81.950195"/>
<use xlink:href="#glyph-1-3" x="35.6875" y="81.950195"/>
<use xlink:href="#glyph-1-6" x="40.6875" y="81.950195"/>
</g>
<g fill="rgb(9.411765%, 19.607843%, 24.705882%)" fill-opacity="1">
<use xlink:href="#glyph-2-0" x="429.335938" y="322.061523"/>
<use xlink:href="#glyph-2-1" x="436.335938" y="322.061523"/>
<use xlink:href="#glyph-2-2" x="442.335938" y="322.061523"/>
<use xlink:href="#glyph-2-3" x="452.335938" y="322.061523"/>
<use xlink:href="#glyph-2-4" x="459.335938" y="322.061523"/>
<use xlink:href="#glyph-2-5" x="462.335938" y="322.061523"/>
<use xlink:href="#glyph-2-6" x="468.335938" y="322.061523"/>
<use xlink:href="#glyph-2-7" x="474.335938" y="322.061523"/>
<use xlink:href="#glyph-2-6" x="477.335938" y="322.061523"/>
<use xlink:href="#glyph-2-8" x="483.335938" y="322.061523"/>
<use xlink:href="#glyph-2-1" x="490.335938" y="322.061523"/>
<use xlink:href="#glyph-2-9" x="496.335938" y="322.061523"/>
<use xlink:href="#glyph-2-10" x="500.335938" y="322.061523"/>
<use xlink:href="#glyph-2-11" x="503.335938" y="322.061523"/>
<use xlink:href="#glyph-2-12" x="510.335938" y="322.061523"/>
<use xlink:href="#glyph-2-7" x="517.335938" y="322.061523"/>
<use xlink:href="#glyph-2-13" x="520.335938" y="322.061523"/>
<use xlink:href="#glyph-2-8" x="524.335938" y="322.061523"/>
<use xlink:href="#glyph-2-5" x="531.335938" y="322.061523"/>
<use xlink:href="#glyph-2-7" x="537.335938" y="322.061523"/>
<use xlink:href="#glyph-2-14" x="540.335938" y="322.061523"/>
<use xlink:href="#glyph-2-15" x="546.335938" y="322.061523"/>
<use xlink:href="#glyph-2-6" x="553.335938" y="322.061523"/>
<use xlink:href="#glyph-2-13" x="559.335938" y="322.061523"/>
<use xlink:href="#glyph-2-16" x="563.335938" y="322.061523"/>
<use xlink:href="#glyph-2-2" x="570.335938" y="322.061523"/>
<use xlink:href="#glyph-2-7" x="580.335938" y="322.061523"/>
<use xlink:href="#glyph-2-14" x="583.335938" y="322.061523"/>
<use xlink:href="#glyph-2-1" x="589.335938" y="322.061523"/>
<use xlink:href="#glyph-2-14" x="595.335938" y="322.061523"/>
<use xlink:href="#glyph-2-8" x="601.335938" y="322.061523"/>
<use xlink:href="#glyph-2-5" x="608.335938" y="322.061523"/>
<use xlink:href="#glyph-2-7" x="614.335938" y="322.061523"/>
<use xlink:href="#glyph-2-17" x="617.335938" y="322.061523"/>
<use xlink:href="#glyph-2-4" x="621.335938" y="322.061523"/>
<use xlink:href="#glyph-2-16" x="624.335938" y="322.061523"/>
<use xlink:href="#glyph-2-12" x="631.335938" y="322.061523"/>
<use xlink:href="#glyph-2-7" x="638.335938" y="322.061523"/>
<use xlink:href="#glyph-2-6" x="641.335938" y="322.061523"/>
<use xlink:href="#glyph-2-14" x="647.335938" y="322.061523"/>
<use xlink:href="#glyph-2-1" x="653.335938" y="322.061523"/>
<use xlink:href="#glyph-2-4" x="659.335938" y="322.061523"/>
<use xlink:href="#glyph-2-5" x="662.335938" y="322.061523"/>
<use xlink:href="#glyph-2-18" x="668.335938" y="322.061523"/>
</g>
<g fill="rgb(9.411765%, 19.607843%, 24.705882%)" fill-opacity="1">
<use xlink:href="#glyph-3-0" x="21.967773" y="261.019531"/>
<use xlink:href="#glyph-3-1" x="21.967773" y="254.019531"/>
<use xlink:href="#glyph-3-2" x="21.967773" y="247.019531"/>
<use xlink:href="#glyph-3-3" x="21.967773" y="241.019531"/>
<use xlink:href="#glyph-3-4" x="21.967773" y="235.019531"/>
<use xlink:href="#glyph-3-5" x="21.967773" y="231.019531"/>
<use xlink:href="#glyph-3-6" x="21.967773" y="228.019531"/>
<use xlink:href="#glyph-3-2" x="21.967773" y="222.019531"/>
<use xlink:href="#glyph-3-7" x="21.967773" y="216.019531"/>
<use xlink:href="#glyph-3-8" x="21.967773" y="213.019531"/>
<use xlink:href="#glyph-3-9" x="21.967773" y="207.019531"/>
<use xlink:href="#glyph-3-2" x="21.967773" y="200.019531"/>
<use xlink:href="#glyph-3-2" x="21.967773" y="194.019531"/>
<use xlink:href="#glyph-3-10" x="21.967773" y="188.019531"/>
<use xlink:href="#glyph-3-11" x="21.967773" y="181.019531"/>
<use xlink:href="#glyph-3-9" x="21.967773" y="174.019531"/>
<use xlink:href="#glyph-3-7" x="21.967773" y="167.019531"/>
<use xlink:href="#glyph-3-9" x="21.967773" y="164.019531"/>
<use xlink:href="#glyph-3-2" x="21.967773" y="157.019531"/>
<use xlink:href="#glyph-3-12" x="21.967773" y="151.019531"/>
<use xlink:href="#glyph-3-7" x="21.967773" y="147.019531"/>
<use xlink:href="#glyph-3-8" x="21.967773" y="144.019531"/>
<use xlink:href="#glyph-3-13" x="21.967773" y="138.019531"/>
<use xlink:href="#glyph-3-14" x="21.967773" y="132.019531"/>
<use xlink:href="#glyph-3-9" x="21.967773" y="122.019531"/>
<use xlink:href="#glyph-3-15" x="21.967773" y="115.019531"/>
<use xlink:href="#glyph-3-2" x="21.967773" y="112.019531"/>
</g>
<g fill="rgb(40.784314%, 47.45098%, 50.196078%)" fill-opacity="1">
<use xlink:href="#glyph-4-0" x="50.617188" y="37.956055"/>
<use xlink:href="#glyph-4-1" x="57.617188" y="37.956055"/>
<use xlink:href="#glyph-4-2" x="63.617188" y="37.956055"/>
<use xlink:href="#glyph-4-3" x="69.617188" y="37.956055"/>
<use xlink:href="#glyph-4-4" x="75.617188" y="37.956055"/>
<use xlink:href="#glyph-4-5" x="78.617188" y="37.956055"/>
<use xlink:href="#glyph-4-6" x="80.617188" y="37.956055"/>
<use xlink:href="#glyph-4-2" x="85.617188" y="37.956055"/>
<use xlink:href="#glyph-4-7" x="91.617188" y="37.956055"/>
<use xlink:href="#glyph-4-8" x="94.617188" y="37.956055"/>
<use xlink:href="#glyph-4-9" x="100.617188" y="37.956055"/>
<use xlink:href="#glyph-4-2" x="106.617188" y="37.956055"/>
<use xlink:href="#glyph-4-2" x="112.617188" y="37.956055"/>
<use xlink:href="#glyph-4-10" x="118.617188" y="37.956055"/>
<use xlink:href="#glyph-4-11" x="124.617188" y="37.956055"/>
<use xlink:href="#glyph-4-9" x="130.617188" y="37.956055"/>
<use xlink:href="#glyph-4-7" x="136.617188" y="37.956055"/>
<use xlink:href="#glyph-4-5" x="139.617188" y="37.956055"/>
<use xlink:href="#glyph-4-12" x="141.617188" y="37.956055"/>
<use xlink:href="#glyph-4-3" x="147.617188" y="37.956055"/>
<use xlink:href="#glyph-4-13" x="153.617188" y="37.956055"/>
<use xlink:href="#glyph-4-11" x="155.617188" y="37.956055"/>
<use xlink:href="#glyph-4-10" x="161.617188" y="37.956055"/>
<use xlink:href="#glyph-4-2" x="167.617188" y="37.956055"/>
<use xlink:href="#glyph-4-8" x="173.617188" y="37.956055"/>
<use xlink:href="#glyph-4-7" x="179.617188" y="37.956055"/>
<use xlink:href="#glyph-4-14" x="182.617188" y="37.956055"/>
<use xlink:href="#glyph-4-2" x="191.617188" y="37.956055"/>
<use xlink:href="#glyph-4-15" x="197.617188" y="37.956055"/>
<use xlink:href="#glyph-4-8" x="203.617188" y="37.956055"/>
<use xlink:href="#glyph-4-11" x="209.617188" y="37.956055"/>
<use xlink:href="#glyph-4-16" x="215.617188" y="37.956055"/>
<use xlink:href="#glyph-4-2" x="219.617188" y="37.956055"/>
<use xlink:href="#glyph-4-10" x="225.617188" y="37.956055"/>
<use xlink:href="#glyph-4-7" x="231.617188" y="37.956055"/>
<use xlink:href="#glyph-4-4" x="234.617188" y="37.956055"/>
<use xlink:href="#glyph-4-17" x="237.617188" y="37.956055"/>
<use xlink:href="#glyph-4-16" x="243.617188" y="37.956055"/>
<use xlink:href="#glyph-4-2" x="247.617188" y="37.956055"/>
<use xlink:href="#glyph-4-2" x="253.617188" y="37.956055"/>
<use xlink:href="#glyph-4-18" x="259.617188" y="37.956055"/>
<use xlink:href="#glyph-4-19" x="263.617188" y="37.956055"/>
<use xlink:href="#glyph-4-2" x="269.617188" y="37.956055"/>
<use xlink:href="#glyph-4-12" x="275.617188" y="37.956055"/>
<use xlink:href="#glyph-4-20" x="281.617188" y="37.956055"/>
<use xlink:href="#glyph-4-14" x="287.617188" y="37.956055"/>
<use xlink:href="#glyph-4-2" x="296.617188" y="37.956055"/>
<use xlink:href="#glyph-4-7" x="302.617188" y="37.956055"/>
<use xlink:href="#glyph-4-3" x="305.617188" y="37.956055"/>
<use xlink:href="#glyph-4-15" x="311.617188" y="37.956055"/>
<use xlink:href="#glyph-4-3" x="317.617188" y="37.956055"/>
<use xlink:href="#glyph-4-17" x="323.617188" y="37.956055"/>
<use xlink:href="#glyph-4-2" x="329.617188" y="37.956055"/>
<use xlink:href="#glyph-4-7" x="335.617188" y="37.956055"/>
<use xlink:href="#glyph-4-3" x="338.617188" y="37.956055"/>
<use xlink:href="#glyph-4-20" x="344.617188" y="37.956055"/>
<use xlink:href="#glyph-4-12" x="350.617188" y="37.956055"/>
<use xlink:href="#glyph-4-8" x="356.617188" y="37.956055"/>
<use xlink:href="#glyph-4-4" x="361.617188" y="37.956055"/>
<use xlink:href="#glyph-4-16" x="364.617188" y="37.956055"/>
<use xlink:href="#glyph-4-11" x="368.617188" y="37.956055"/>
<use xlink:href="#glyph-4-3" x="374.617188" y="37.956055"/>
<use xlink:href="#glyph-4-4" x="380.617188" y="37.956055"/>
<use xlink:href="#glyph-4-5" x="383.617188" y="37.956055"/>
<use xlink:href="#glyph-4-20" x="385.617188" y="37.956055"/>
<use xlink:href="#glyph-4-12" x="391.617188" y="37.956055"/>
</g>
<g fill="rgb(9.411765%, 19.607843%, 24.705882%)" fill-opacity="1">
<use xlink:href="#glyph-5-0" x="50.617188" y="21.579102"/>
<use xlink:href="#glyph-5-1" x="60.617188" y="21.579102"/>
<use xlink:href="#glyph-5-2" x="64.617188" y="21.579102"/>
<use xlink:href="#glyph-5-3" x="71.617188" y="21.579102"/>
<use xlink:href="#glyph-5-4" x="79.617188" y="21.579102"/>
<use xlink:href="#glyph-5-5" x="86.617188" y="21.579102"/>
<use xlink:href="#glyph-5-6" x="90.617188" y="21.579102"/>
<use xlink:href="#glyph-5-7" x="98.617188" y="21.579102"/>
<use xlink:href="#glyph-5-1" x="110.617188" y="21.579102"/>
<use xlink:href="#glyph-5-2" x="114.617188" y="21.579102"/>
<use xlink:href="#glyph-5-8" x="121.617188" y="21.579102"/>
<use xlink:href="#glyph-5-2" x="128.617188" y="21.579102"/>
<use xlink:href="#glyph-5-9" x="135.617188" y="21.579102"/>
<use xlink:href="#glyph-5-10" x="143.617188" y="21.579102"/>
<use xlink:href="#glyph-5-1" x="150.617188" y="21.579102"/>
<use xlink:href="#glyph-5-11" x="154.617188" y="21.579102"/>
<use xlink:href="#glyph-5-10" x="159.617188" y="21.579102"/>
<use xlink:href="#glyph-5-12" x="166.617188" y="21.579102"/>
<use xlink:href="#glyph-5-8" x="174.617188" y="21.579102"/>
<use xlink:href="#glyph-5-13" x="181.617188" y="21.579102"/>
<use xlink:href="#glyph-5-4" x="188.617188" y="21.579102"/>
<use xlink:href="#glyph-5-1" x="195.617188" y="21.579102"/>
<use xlink:href="#glyph-5-14" x="199.617188" y="21.579102"/>
<use xlink:href="#glyph-5-5" x="203.617188" y="21.579102"/>
<use xlink:href="#glyph-5-4" x="207.617188" y="21.579102"/>
<use xlink:href="#glyph-5-1" x="214.617188" y="21.579102"/>
<use xlink:href="#glyph-5-6" x="218.617188" y="21.579102"/>
<use xlink:href="#glyph-5-15" x="226.617188" y="21.579102"/>
<use xlink:href="#glyph-5-10" x="234.617188" y="21.579102"/>
<use xlink:href="#glyph-5-16" x="242.617188" y="21.579102"/>
<use xlink:href="#glyph-5-5" x="246.617188" y="21.579102"/>
<use xlink:href="#glyph-5-14" x="250.617188" y="21.579102"/>
<use xlink:href="#glyph-5-7" x="254.617188" y="21.579102"/>
<use xlink:href="#glyph-5-10" x="266.617188" y="21.579102"/>
<use xlink:href="#glyph-5-1" x="273.617188" y="21.579102"/>
<use xlink:href="#glyph-5-17" x="277.617188" y="21.579102"/>
<use xlink:href="#glyph-5-3" x="285.617188" y="21.579102"/>
<use xlink:href="#glyph-5-14" x="293.617188" y="21.579102"/>
<use xlink:href="#glyph-5-18" x="297.617188" y="21.579102"/>
<use xlink:href="#glyph-5-19" x="301.617188" y="21.579102"/>
<use xlink:href="#glyph-5-1" x="309.617188" y="21.579102"/>
<use xlink:href="#glyph-5-2" x="313.617188" y="21.579102"/>
<use xlink:href="#glyph-5-6" x="320.617188" y="21.579102"/>
<use xlink:href="#glyph-5-4" x="328.617188" y="21.579102"/>
<use xlink:href="#glyph-5-5" x="335.617188" y="21.579102"/>
</g>
</svg>
